<?xml version="1.0" encoding="UTF-8"?>

<!DOCTYPE svg PUBLIC '-//W3C//DTD SVG 1.0//EN' 'http://www.w3.org/TR/2001/REC-SVG-20010904/DTD/svg10.dtd'>
<svg style="fill-opacity:1; color-rendering:auto; color-interpolation:auto; text-rendering:auto; stroke:black; stroke-linecap:square; stroke-miterlimit:10; shape-rendering:auto; stroke-opacity:1; fill:black; stroke-dasharray:none; font-weight:normal; stroke-width:1; font-family:&apos;Dialog&apos;; font-style:normal; stroke-linejoin:miter; font-size:12; stroke-dashoffset:0; image-rendering:auto;" xmlns="http://www.w3.org/2000/svg" width="897" xmlns:xlink="http://www.w3.org/1999/xlink" height="475">
  <!--Generated by Selena using Batik-->
  <defs id="genericDefs" />
  <g>
    <defs id="defs1">
      <clipPath clipPathUnits="userSpaceOnUse" id="clipPath1">
        <path d="M0 0 L12000 0 L12000 12000 L0 12000 L0 0 Z" />
      </clipPath>
      <clipPath clipPathUnits="userSpaceOnUse" id="clipPath2">
        <path d="M252 35 L252 388 L891 388 L891 35 Z" />
      </clipPath>
      <clipPath clipPathUnits="userSpaceOnUse" id="clipPath3">
        <path d="M252 35 L252 52 L346 52 L346 35 Z" />
      </clipPath>
      <clipPath clipPathUnits="userSpaceOnUse" id="clipPath4">
        <path d="M0 0 L0 15 L22 15 L22 0 Z" />
      </clipPath>
      <clipPath clipPathUnits="userSpaceOnUse" id="clipPath5">
        <path d="M0 0 L0 15 L62 15 L62 0 Z" />
      </clipPath>
      <clipPath clipPathUnits="userSpaceOnUse" id="clipPath6">
        <path d="M285 156 L285 267 L630 267 L630 156 Z" />
      </clipPath>
      <clipPath clipPathUnits="userSpaceOnUse" id="clipPath7">
        <path d="M285 176 L285 267 L630 267 L630 176 Z" />
      </clipPath>
      <clipPath clipPathUnits="userSpaceOnUse" id="clipPath8">
        <path d="M460 130 L460 146 L476 146 L476 130 Z" />
      </clipPath>
      <clipPath clipPathUnits="userSpaceOnUse" id="clipPath9">
        <path d="M371 62 L371 122 L475 122 L475 62 Z" />
      </clipPath>
      <clipPath clipPathUnits="userSpaceOnUse" id="clipPath10">
        <path d="M571 62 L571 122 L649 122 L649 62 Z" />
      </clipPath>
      <clipPath clipPathUnits="userSpaceOnUse" id="clipPath11">
        <path d="M681 130 L681 231 L877 231 L877 130 Z" />
      </clipPath>
      <clipPath clipPathUnits="userSpaceOnUse" id="clipPath12">
        <path d="M0 0 L0 15 L49 15 L49 0 Z" />
      </clipPath>
      <clipPath clipPathUnits="userSpaceOnUse" id="clipPath13">
        <path d="M49 0 L49 15 L94 15 L94 0 Z" />
      </clipPath>
      <clipPath clipPathUnits="userSpaceOnUse" id="clipPath14">
        <path d="M295 122 L295 362 L551 362 L551 122 Z" />
      </clipPath>
      <clipPath clipPathUnits="userSpaceOnUse" id="clipPath15">
        <path d="M413 138 L413 285 L433 285 L433 138 Z" />
      </clipPath>
      <clipPath clipPathUnits="userSpaceOnUse" id="clipPath16">
        <path d="M413 217 L413 241 L433 241 L433 217 Z" />
      </clipPath>
      <clipPath clipPathUnits="userSpaceOnUse" id="clipPath17">
        <path d="M0 0 L0 15 L36 15 L36 0 Z" />
      </clipPath>
      <clipPath clipPathUnits="userSpaceOnUse" id="clipPath18">
        <path d="M36 0 L36 15 L68 15 L68 0 Z" />
      </clipPath>
      <clipPath clipPathUnits="userSpaceOnUse" id="clipPath19">
        <path d="M571 122 L571 362 L649 362 L649 122 Z" />
      </clipPath>
      <clipPath clipPathUnits="userSpaceOnUse" id="clipPath20">
        <path d="M600 217 L600 241 L620 241 L620 217 Z" />
      </clipPath>
      <clipPath clipPathUnits="userSpaceOnUse" id="clipPath21">
        <path d="M0 0 L0 60 L167 60 L167 0 Z" />
      </clipPath>
      <clipPath clipPathUnits="userSpaceOnUse" id="clipPath22">
        <path d="M286 157 L286 174 L421 174 L421 157 Z" />
      </clipPath>
      <clipPath clipPathUnits="userSpaceOnUse" id="clipPath23">
        <path d="M0 0 L0 15 L31 15 L31 0 Z" />
      </clipPath>
      <clipPath clipPathUnits="userSpaceOnUse" id="clipPath24">
        <path d="M0 0 L0 15 L89 15 L89 0 Z" />
      </clipPath>
      <clipPath clipPathUnits="userSpaceOnUse" id="clipPath25">
        <path d="M0 0 L0 15 L247 15 L247 0 Z" />
      </clipPath>
      <clipPath clipPathUnits="userSpaceOnUse" id="clipPath26">
        <path d="M433 135 L433 142 L448 142 L448 135 Z" />
      </clipPath>
      <clipPath clipPathUnits="userSpaceOnUse" id="clipPath27">
        <path d="M0 0 L0 15 L16 15 L16 0 Z" />
      </clipPath>
      <clipPath clipPathUnits="userSpaceOnUse" id="clipPath28">
        <path d="M0 0 L0 15 L11 15 L11 0 Z" />
      </clipPath>
      <clipPath clipPathUnits="userSpaceOnUse" id="clipPath29">
        <path d="M420 153 L420 160 L427 160 L427 153 Z" />
      </clipPath>
      <clipPath clipPathUnits="userSpaceOnUse" id="clipPath30">
        <path d="M606 153 L606 160 L613 160 L613 153 Z" />
      </clipPath>
      <clipPath clipPathUnits="userSpaceOnUse" id="clipPath31">
        <path d="M585 214 L585 221 L600 221 L600 214 Z" />
      </clipPath>
      <clipPath clipPathUnits="userSpaceOnUse" id="clipPath32">
        <path d="M0 0 L0 15 L28 15 L28 0 Z" />
      </clipPath>
      <clipPath clipPathUnits="userSpaceOnUse" id="clipPath33">
        <path d="M0 0 L0 15 L57 15 L57 0 Z" />
      </clipPath>
      <clipPath clipPathUnits="userSpaceOnUse" id="clipPath34">
        <path d="M57 0 L57 15 L67 15 L67 0 Z" />
      </clipPath>
    </defs>
    <g style="fill:white; stroke:white;">
      <rect x="0" y="0" width="897" style="clip-path:url(#clipPath1); stroke:none;" height="475" />
      <rect x="0" y="0" width="896" style="clip-path:url(#clipPath1); fill:none; stroke:blue;" height="474" />
      <rect x="252" y="35" width="639" style="clip-path:url(#clipPath2); stroke:none;" height="353" />
      <rect x="252" y="35" width="638" style="clip-path:url(#clipPath2); fill:none; stroke:black;" height="352" />
      <polygon style="clip-path:url(#clipPath3); stroke:none;" points=" 252 35 345 35 345 46 340 51 252 51 252 35" />
      <polygon style="fill:none; clip-path:url(#clipPath3); stroke:black;" points=" 252 35 345 35 345 46 340 51 252 51 252 35" />
    </g>
    <g style="font-size:13; font-weight:bold;" transform="translate(257,35)">
      <text x="0" y="13" style="clip-path:url(#clipPath4); stroke:none;" xml:space="preserve">sd </text>
      <text x="0" y="13" transform="translate(22,0)" style="clip-path:url(#clipPath5); stroke:none; font-weight:normal;" xml:space="preserve">Spielstart</text>
      <rect x="285" y="156" transform="translate(-257,-35)" width="345" style="clip-path:url(#clipPath6); fill:rgb(234,231,249); stroke:none;" height="111" />
      <rect x="285" y="176" transform="translate(-257,-35)" width="345" style="clip-path:url(#clipPath7); fill:rgb(234,231,249); stroke:none;" height="91" />
      <circle transform="translate(-254,-32)" style="clip-path:url(#clipPath8); fill:rgb(153,153,153); stroke:none;" r="4" cx="468" cy="138" />
      <rect x="371" y="62" transform="translate(-254,-32)" width="104" style="clip-path:url(#clipPath9); fill:rgb(153,153,153); stroke:none;" height="60" />
      <rect x="371" y="62" transform="translate(-254,-32)" width="103" style="clip-path:url(#clipPath9); fill:none; stroke:rgb(153,153,153);" height="59" />
      <rect x="571" y="62" transform="translate(-254,-32)" width="78" style="clip-path:url(#clipPath10); fill:rgb(153,153,153); stroke:none;" height="60" />
      <rect x="571" y="62" transform="translate(-254,-32)" width="77" style="clip-path:url(#clipPath10); fill:none; stroke:rgb(153,153,153);" height="59" />
      <polygon points=" 681 130 856 130 876 150 876 230 681 230 681 130" transform="translate(-254,-32)" style="fill:rgb(153,153,153); clip-path:url(#clipPath11); stroke:none;" />
      <path transform="translate(-254,-32)" style="fill:none; clip-path:url(#clipPath11); stroke:rgb(153,153,153);" d="M681 130 L856 130 L876 150 L876 230 L681 230 L681 130" />
      <path transform="translate(-254,-32)" style="fill:none; clip-path:url(#clipPath11); stroke:rgb(153,153,153);" d="M856 130 L876 150 L856 150 L856 130" />
      <circle transform="translate(-257,-35)" style="clip-path:url(#clipPath8); stroke:none;" r="4" cx="468" cy="138" />
      <rect x="371" y="62" transform="translate(-257,-35)" width="104" style="clip-path:url(#clipPath9); fill:white; stroke:none;" height="60" />
      <rect x="371" y="62" transform="translate(-257,-35)" width="103" style="clip-path:url(#clipPath9); fill:none;" height="59" />
      <text x="0" y="13" transform="translate(119,27)" style="clip-path:url(#clipPath12); stroke:none; font-weight:normal;" xml:space="preserve">Spieler:</text>
      <text x="49" y="13" transform="translate(119,27)" style="clip-path:url(#clipPath13); stroke:none; font-weight:normal;" xml:space="preserve">Spieler</text>
      <line transform="translate(-257,-35)" x1="423" x2="423" y1="122" style="clip-path:url(#clipPath14); fill:none;" y2="362" />
      <rect x="413" y="138" transform="translate(-257,-35)" width="20" style="clip-path:url(#clipPath15); fill:white; stroke:none;" height="147" />
      <rect x="413" y="138" transform="translate(-257,-35)" width="19" style="clip-path:url(#clipPath15); fill:none;" height="146" />
      <rect x="415" y="217" transform="translate(-257,-35)" width="17" style="clip-path:url(#clipPath16); fill:rgb(240,240,240); stroke:none;" height="24" />
      <rect x="571" y="62" transform="translate(-257,-35)" width="78" style="clip-path:url(#clipPath10); fill:white; stroke:none;" height="60" />
      <rect x="571" y="62" transform="translate(-257,-35)" width="77" style="clip-path:url(#clipPath10); fill:none;" height="59" />
      <text x="0" y="13" transform="translate(319,27)" style="clip-path:url(#clipPath17); stroke:none; font-weight:normal;" xml:space="preserve">Spiel:</text>
      <text x="36" y="13" transform="translate(319,27)" style="clip-path:url(#clipPath18); stroke:none; font-weight:normal;" xml:space="preserve">Spiel</text>
      <line transform="translate(-257,-35)" x1="610" x2="610" y1="122" style="clip-path:url(#clipPath19); fill:none;" y2="362" />
      <rect x="600" y="217" transform="translate(-257,-35)" width="20" style="clip-path:url(#clipPath20); fill:white; stroke:none;" height="24" />
      <rect x="600" y="217" transform="translate(-257,-35)" width="19" style="clip-path:url(#clipPath20); fill:none;" height="23" />
      <polygon points=" 681 130 856 130 876 150 876 230 681 230 681 130" transform="translate(-257,-35)" style="fill:white; clip-path:url(#clipPath11); stroke:none;" />
      <path d="M681 130 L856 130 L876 150 L876 230 L681 230 L681 130" style="fill:none; clip-path:url(#clipPath11);" transform="translate(-257,-35)" />
      <path d="M856 130 L876 150 L856 150 L856 130" style="fill:none; clip-path:url(#clipPath11);" transform="translate(-257,-35)" />
      <text x="0" y="13" transform="translate(428,99)" style="clip-path:url(#clipPath21); stroke:none; font-weight:normal;" xml:space="preserve">Alle Spieler müssen</text>
      <text x="0" y="28" transform="translate(428,99)" style="clip-path:url(#clipPath21); stroke:none; font-weight:normal;" xml:space="preserve">würfeln, solange bis ein</text>
      <text x="0" y="43" transform="translate(428,99)" style="clip-path:url(#clipPath21); stroke:none; font-weight:normal;" xml:space="preserve">klarer Startspieler</text>
      <text x="0" y="58" transform="translate(428,99)" style="clip-path:url(#clipPath21); stroke:none; font-weight:normal;" xml:space="preserve">bestimmt werden kann....</text>
      <rect x="286" y="157" transform="translate(-257,-35)" width="343" style="clip-path:url(#clipPath6); fill:none;" height="109" />
      <polygon points=" 286 157 420 157 420 168 415 173 286 173 286 157" transform="translate(-257,-35)" style="fill:white; clip-path:url(#clipPath22); stroke:none;" />
      <polygon style="fill:none; clip-path:url(#clipPath22);" transform="translate(-257,-35)" points=" 286 157 420 157 420 168 415 173 286 173 286 157" />
      <text x="0" y="13" transform="translate(34,122)" style="clip-path:url(#clipPath23); stroke:none;" xml:space="preserve">loop</text>
      <text x="0" y="13" transform="translate(70,122)" style="clip-path:url(#clipPath24); stroke:none; font-weight:normal;" xml:space="preserve">(anzSpieler,*)</text>
      <text x="0" y="13" transform="translate(43,143)" style="clip-path:url(#clipPath25); stroke:none; font-weight:normal;" xml:space="preserve">[bis hoechste Zahl einmal vorhanden]</text>
      <path d="M467 138 L433 138" style="fill:none; clip-path:url(#clipPath1);" transform="translate(-257,-35)" />
      <polygon style="clip-path:url(#clipPath26); stroke:none;" transform="translate(-257,-35)" points=" 433 138 447 135 447 141" />
      <polygon style="fill:none; clip-path:url(#clipPath26);" transform="translate(-257,-35)" points=" 433 138 447 135 447 141" />
      <text x="2" y="13" transform="translate(184,88)" style="clip-path:url(#clipPath27); stroke:none; font-weight:normal;" xml:space="preserve">1:</text>
      <text x="2" y="13" transform="translate(200,88)" style="clip-path:url(#clipPath28); stroke:none; font-weight:normal;" xml:space="preserve">*</text>
      <path d="M467 138 L433 138" style="fill:none; clip-path:url(#clipPath1);" transform="translate(-257,-35)" />
      <polygon style="clip-path:url(#clipPath26); stroke:none;" transform="translate(-257,-35)" points=" 433 138 447 135 447 141" />
      <polygon style="fill:none; clip-path:url(#clipPath26);" transform="translate(-257,-35)" points=" 433 138 447 135 447 141" />
      <text x="2" y="13" transform="translate(184,88)" style="clip-path:url(#clipPath27); stroke:none; font-weight:normal;" xml:space="preserve">1:</text>
      <text x="2" y="13" transform="translate(200,88)" style="clip-path:url(#clipPath28); stroke:none; font-weight:normal;" xml:space="preserve">*</text>
      <path d="M423 156 L423 156" style="fill:none; clip-path:url(#clipPath1);" transform="translate(-257,-35)" />
      <circle transform="translate(-257,-35)" style="clip-path:url(#clipPath29); fill:rgb(64,64,64); stroke:none;" r="3" cx="423" cy="156" />
      <circle transform="translate(-257,-35)" style="clip-path:url(#clipPath29); fill:none;" r="3" cx="423" cy="156" />
      <path d="M423 156 L423 156" style="fill:none; clip-path:url(#clipPath1);" transform="translate(-257,-35)" />
      <circle transform="translate(-257,-35)" style="clip-path:url(#clipPath29); fill:rgb(64,64,64); stroke:none;" r="3" cx="423" cy="156" />
      <circle transform="translate(-257,-35)" style="clip-path:url(#clipPath29); fill:none;" r="3" cx="423" cy="156" />
      <path d="M609 156 L609 156" style="fill:none; clip-path:url(#clipPath1);" transform="translate(-257,-35)" />
      <circle transform="translate(-257,-35)" style="clip-path:url(#clipPath30); fill:rgb(64,64,64); stroke:none;" r="3" cx="609" cy="156" />
      <circle transform="translate(-257,-35)" style="clip-path:url(#clipPath30); fill:none;" r="3" cx="609" cy="156" />
      <path d="M609 156 L609 156" style="fill:none; clip-path:url(#clipPath1);" transform="translate(-257,-35)" />
      <circle transform="translate(-257,-35)" style="clip-path:url(#clipPath30); fill:rgb(64,64,64); stroke:none;" r="3" cx="609" cy="156" />
      <circle transform="translate(-257,-35)" style="clip-path:url(#clipPath30); fill:none;" r="3" cx="609" cy="156" />
      <path d="M433 217 L599 217" style="fill:none; clip-path:url(#clipPath1);" transform="translate(-257,-35)" />
      <polygon style="clip-path:url(#clipPath31); stroke:none;" transform="translate(-257,-35)" points=" 599 217 585 220 585 214" />
      <polygon style="fill:none; clip-path:url(#clipPath31);" transform="translate(-257,-35)" points=" 599 217 585 220 585 214" />
      <text x="2" y="13" transform="translate(176,167)" style="clip-path:url(#clipPath32); stroke:none; font-weight:normal;" xml:space="preserve">1.1:</text>
      <text x="0" y="13" transform="translate(206,167)" style="clip-path:url(#clipPath33); stroke:none; font-weight:normal;" xml:space="preserve">wuerfeln</text>
      <text x="57" y="13" transform="translate(206,167)" style="clip-path:url(#clipPath34); stroke:none; font-weight:normal;" xml:space="preserve">()</text>
      <path d="M433 217 L599 217" style="fill:none; clip-path:url(#clipPath1);" transform="translate(-257,-35)" />
      <polygon style="clip-path:url(#clipPath31); stroke:none;" transform="translate(-257,-35)" points=" 599 217 585 220 585 214" />
      <polygon style="fill:none; clip-path:url(#clipPath31);" transform="translate(-257,-35)" points=" 599 217 585 220 585 214" />
      <text x="2" y="13" transform="translate(176,167)" style="clip-path:url(#clipPath32); stroke:none; font-weight:normal;" xml:space="preserve">1.1:</text>
      <text x="0" y="13" transform="translate(206,167)" style="clip-path:url(#clipPath33); stroke:none; font-weight:normal;" xml:space="preserve">wuerfeln</text>
      <text x="57" y="13" transform="translate(206,167)" style="clip-path:url(#clipPath34); stroke:none; font-weight:normal;" xml:space="preserve">()</text>
    </g>
    <g style="fill:purple; font-size:13; stroke-dasharray:15,10; stroke-linecap:butt; stroke:purple;">
      <path d="M680 192 L629 192" style="fill:none; clip-path:url(#clipPath1);" />
      <path d="M680 192 L629 192" style="fill:none; clip-path:url(#clipPath1);" />
    </g>
  </g>
</svg>
