<?xml version="1.0" encoding="UTF-8"?>

<!DOCTYPE svg PUBLIC '-//W3C//DTD SVG 1.0//EN' 'http://www.w3.org/TR/2001/REC-SVG-20010904/DTD/svg10.dtd'>
<svg style="fill-opacity:1; color-rendering:auto; color-interpolation:auto; text-rendering:auto; stroke:black; stroke-linecap:square; stroke-miterlimit:10; shape-rendering:auto; stroke-opacity:1; fill:black; stroke-dasharray:none; font-weight:normal; stroke-width:1; font-family:&apos;Dialog&apos;; font-style:normal; stroke-linejoin:miter; font-size:12; stroke-dashoffset:0; image-rendering:auto;" xmlns="http://www.w3.org/2000/svg" width="724" xmlns:xlink="http://www.w3.org/1999/xlink" height="522">
  <!--Generated by Selena using Batik-->
  <defs id="genericDefs" />
  <g>
    <defs id="defs1">
      <clipPath clipPathUnits="userSpaceOnUse" id="clipPath1">
        <path d="M0 0 L12000 0 L12000 12000 L0 12000 L0 0 Z" />
      </clipPath>
      <clipPath clipPathUnits="userSpaceOnUse" id="clipPath2">
        <path d="M76 33 L76 458 L594 458 L594 33 Z" />
      </clipPath>
      <clipPath clipPathUnits="userSpaceOnUse" id="clipPath3">
        <path d="M76 33 L76 50 L163 50 L163 33 Z" />
      </clipPath>
      <clipPath clipPathUnits="userSpaceOnUse" id="clipPath4">
        <path d="M0 0 L0 15 L22 15 L22 0 Z" />
      </clipPath>
      <clipPath clipPathUnits="userSpaceOnUse" id="clipPath5">
        <path d="M0 0 L0 15 L55 15 L55 0 Z" />
      </clipPath>
      <clipPath clipPathUnits="userSpaceOnUse" id="clipPath6">
        <path d="M140 154 L140 330 L449 330 L449 154 Z" />
      </clipPath>
      <clipPath clipPathUnits="userSpaceOnUse" id="clipPath7">
        <path d="M140 174 L140 330 L449 330 L449 174 Z" />
      </clipPath>
      <clipPath clipPathUnits="userSpaceOnUse" id="clipPath8">
        <path d="M182 128 L182 144 L198 144 L198 128 Z" />
      </clipPath>
      <clipPath clipPathUnits="userSpaceOnUse" id="clipPath9">
        <path d="M202 60 L202 120 L306 120 L306 60 Z" />
      </clipPath>
      <clipPath clipPathUnits="userSpaceOnUse" id="clipPath10">
        <path d="M390 60 L390 120 L468 120 L468 60 Z" />
      </clipPath>
      <clipPath clipPathUnits="userSpaceOnUse" id="clipPath11">
        <path d="M0 0 L0 15 L49 15 L49 0 Z" />
      </clipPath>
      <clipPath clipPathUnits="userSpaceOnUse" id="clipPath12">
        <path d="M49 0 L49 15 L94 15 L94 0 Z" />
      </clipPath>
      <clipPath clipPathUnits="userSpaceOnUse" id="clipPath13">
        <path d="M150 120 L150 374 L358 374 L358 120 Z" />
      </clipPath>
      <clipPath clipPathUnits="userSpaceOnUse" id="clipPath14">
        <path d="M244 136 L244 348 L264 348 L264 136 Z" />
      </clipPath>
      <clipPath clipPathUnits="userSpaceOnUse" id="clipPath15">
        <path d="M244 207 L244 231 L264 231 L264 207 Z" />
      </clipPath>
      <clipPath clipPathUnits="userSpaceOnUse" id="clipPath16">
        <path d="M244 260 L244 284 L264 284 L264 260 Z" />
      </clipPath>
      <clipPath clipPathUnits="userSpaceOnUse" id="clipPath17">
        <path d="M0 0 L0 15 L36 15 L36 0 Z" />
      </clipPath>
      <clipPath clipPathUnits="userSpaceOnUse" id="clipPath18">
        <path d="M36 0 L36 15 L68 15 L68 0 Z" />
      </clipPath>
      <clipPath clipPathUnits="userSpaceOnUse" id="clipPath19">
        <path d="M390 120 L390 374 L468 374 L468 120 Z" />
      </clipPath>
      <clipPath clipPathUnits="userSpaceOnUse" id="clipPath20">
        <path d="M419 207 L419 231 L439 231 L439 207 Z" />
      </clipPath>
      <clipPath clipPathUnits="userSpaceOnUse" id="clipPath21">
        <path d="M419 260 L419 284 L439 284 L439 260 Z" />
      </clipPath>
      <clipPath clipPathUnits="userSpaceOnUse" id="clipPath22">
        <path d="M141 155 L141 172 L221 172 L221 155 Z" />
      </clipPath>
      <clipPath clipPathUnits="userSpaceOnUse" id="clipPath23">
        <path d="M0 0 L0 15 L31 15 L31 0 Z" />
      </clipPath>
      <clipPath clipPathUnits="userSpaceOnUse" id="clipPath24">
        <path d="M0 0 L0 15 L34 15 L34 0 Z" />
      </clipPath>
      <clipPath clipPathUnits="userSpaceOnUse" id="clipPath25">
        <path d="M0 0 L0 15 L199 15 L199 0 Z" />
      </clipPath>
      <clipPath clipPathUnits="userSpaceOnUse" id="clipPath26">
        <path d="M251 151 L251 158 L258 158 L258 151 Z" />
      </clipPath>
      <clipPath clipPathUnits="userSpaceOnUse" id="clipPath27">
        <path d="M426 151 L426 158 L433 158 L433 151 Z" />
      </clipPath>
      <clipPath clipPathUnits="userSpaceOnUse" id="clipPath28">
        <path d="M230 133 L230 140 L245 140 L245 133 Z" />
      </clipPath>
      <clipPath clipPathUnits="userSpaceOnUse" id="clipPath29">
        <path d="M0 0 L0 15 L16 15 L16 0 Z" />
      </clipPath>
      <clipPath clipPathUnits="userSpaceOnUse" id="clipPath30">
        <path d="M0 0 L0 15 L11 15 L11 0 Z" />
      </clipPath>
      <clipPath clipPathUnits="userSpaceOnUse" id="clipPath31">
        <path d="M405 204 L405 211 L420 211 L420 204 Z" />
      </clipPath>
      <clipPath clipPathUnits="userSpaceOnUse" id="clipPath32">
        <path d="M0 0 L0 15 L28 15 L28 0 Z" />
      </clipPath>
      <clipPath clipPathUnits="userSpaceOnUse" id="clipPath33">
        <path d="M0 0 L0 15 L57 15 L57 0 Z" />
      </clipPath>
      <clipPath clipPathUnits="userSpaceOnUse" id="clipPath34">
        <path d="M57 0 L57 15 L67 15 L67 0 Z" />
      </clipPath>
      <clipPath clipPathUnits="userSpaceOnUse" id="clipPath35">
        <path d="M405 257 L405 264 L420 264 L420 257 Z" />
      </clipPath>
      <clipPath clipPathUnits="userSpaceOnUse" id="clipPath36">
        <path d="M0 0 L0 15 L43 15 L43 0 Z" />
      </clipPath>
      <clipPath clipPathUnits="userSpaceOnUse" id="clipPath37">
        <path d="M43 0 L43 15 L53 15 L53 0 Z" />
      </clipPath>
    </defs>
    <g style="fill:white; stroke:white;">
      <rect x="0" y="0" width="724" style="clip-path:url(#clipPath1); stroke:none;" height="522" />
      <rect x="0" y="0" width="723" style="clip-path:url(#clipPath1); fill:none; stroke:blue;" height="521" />
      <rect x="76" y="33" width="518" style="clip-path:url(#clipPath2); stroke:none;" height="425" />
      <rect x="76" y="33" width="517" style="clip-path:url(#clipPath2); fill:none; stroke:black;" height="424" />
      <polygon style="clip-path:url(#clipPath3); stroke:none;" points=" 76 33 162 33 162 44 157 49 76 49 76 33" />
      <polygon style="fill:none; clip-path:url(#clipPath3); stroke:black;" points=" 76 33 162 33 162 44 157 49 76 49 76 33" />
    </g>
    <g style="font-size:13; font-weight:bold;" transform="translate(81,33)">
      <text x="0" y="13" style="clip-path:url(#clipPath4); stroke:none;" xml:space="preserve">sd </text>
      <text x="0" y="13" transform="translate(22,0)" style="clip-path:url(#clipPath5); stroke:none; font-weight:normal;" xml:space="preserve">Spielzug</text>
      <rect x="140" y="154" transform="translate(-81,-33)" width="309" style="clip-path:url(#clipPath6); fill:rgb(238,240,249); stroke:none;" height="176" />
      <rect x="140" y="174" transform="translate(-81,-33)" width="309" style="clip-path:url(#clipPath7); fill:rgb(238,240,249); stroke:none;" height="156" />
      <circle transform="translate(-78,-30)" style="clip-path:url(#clipPath8); fill:rgb(153,153,153); stroke:none;" r="4" cx="190" cy="136" />
      <rect x="202" y="60" transform="translate(-78,-30)" width="104" style="clip-path:url(#clipPath9); fill:rgb(153,153,153); stroke:none;" height="60" />
      <rect x="202" y="60" transform="translate(-78,-30)" width="103" style="clip-path:url(#clipPath9); fill:none; stroke:rgb(153,153,153);" height="59" />
      <rect x="390" y="60" transform="translate(-78,-30)" width="78" style="clip-path:url(#clipPath10); fill:rgb(153,153,153); stroke:none;" height="60" />
      <rect x="390" y="60" transform="translate(-78,-30)" width="77" style="clip-path:url(#clipPath10); fill:none; stroke:rgb(153,153,153);" height="59" />
      <circle transform="translate(-81,-33)" style="clip-path:url(#clipPath8); stroke:none;" r="4" cx="190" cy="136" />
      <rect x="202" y="60" transform="translate(-81,-33)" width="104" style="clip-path:url(#clipPath9); fill:white; stroke:none;" height="60" />
      <rect x="202" y="60" transform="translate(-81,-33)" width="103" style="clip-path:url(#clipPath9); fill:none;" height="59" />
      <text x="0" y="13" transform="translate(126,27)" style="clip-path:url(#clipPath11); stroke:none; font-weight:normal;" xml:space="preserve">Spieler:</text>
      <text x="49" y="13" transform="translate(126,27)" style="clip-path:url(#clipPath12); stroke:none; font-weight:normal;" xml:space="preserve">Spieler</text>
      <line transform="translate(-81,-33)" x1="254" x2="254" y1="120" style="clip-path:url(#clipPath13); fill:none;" y2="374" />
      <rect x="244" y="136" transform="translate(-81,-33)" width="20" style="clip-path:url(#clipPath14); fill:white; stroke:none;" height="212" />
      <rect x="244" y="136" transform="translate(-81,-33)" width="19" style="clip-path:url(#clipPath14); fill:none;" height="211" />
      <rect x="246" y="207" transform="translate(-81,-33)" width="17" style="clip-path:url(#clipPath15); fill:rgb(240,240,240); stroke:none;" height="24" />
      <rect x="246" y="260" transform="translate(-81,-33)" width="17" style="clip-path:url(#clipPath16); fill:rgb(240,240,240); stroke:none;" height="24" />
      <rect x="390" y="60" transform="translate(-81,-33)" width="78" style="clip-path:url(#clipPath10); fill:white; stroke:none;" height="60" />
      <rect x="390" y="60" transform="translate(-81,-33)" width="77" style="clip-path:url(#clipPath10); fill:none;" height="59" />
      <text x="0" y="13" transform="translate(314,27)" style="clip-path:url(#clipPath17); stroke:none; font-weight:normal;" xml:space="preserve">Spiel:</text>
      <text x="36" y="13" transform="translate(314,27)" style="clip-path:url(#clipPath18); stroke:none; font-weight:normal;" xml:space="preserve">Spiel</text>
      <line transform="translate(-81,-33)" x1="429" x2="429" y1="120" style="clip-path:url(#clipPath19); fill:none;" y2="374" />
      <rect x="419" y="207" transform="translate(-81,-33)" width="20" style="clip-path:url(#clipPath20); fill:white; stroke:none;" height="24" />
      <rect x="419" y="207" transform="translate(-81,-33)" width="19" style="clip-path:url(#clipPath20); fill:none;" height="23" />
      <rect x="419" y="260" transform="translate(-81,-33)" width="20" style="clip-path:url(#clipPath21); fill:white; stroke:none;" height="24" />
      <rect x="419" y="260" transform="translate(-81,-33)" width="19" style="clip-path:url(#clipPath21); fill:none;" height="23" />
      <rect x="141" y="155" transform="translate(-81,-33)" width="307" style="clip-path:url(#clipPath6); fill:none;" height="174" />
      <polygon points=" 141 155 220 155 220 166 215 171 141 171 141 155" transform="translate(-81,-33)" style="fill:white; clip-path:url(#clipPath22); stroke:none;" />
      <polygon style="fill:none; clip-path:url(#clipPath22);" transform="translate(-81,-33)" points=" 141 155 220 155 220 166 215 171 141 171 141 155" />
      <text x="0" y="13" transform="translate(65,122)" style="clip-path:url(#clipPath23); stroke:none;" xml:space="preserve">loop</text>
      <text x="0" y="13" transform="translate(101,122)" style="clip-path:url(#clipPath24); stroke:none; font-weight:normal;" xml:space="preserve">(1, 3)</text>
      <text x="0" y="13" transform="translate(74,143)" style="clip-path:url(#clipPath25); stroke:none; font-weight:normal;" xml:space="preserve">[Bis gültiger Spielzug möglich]</text>
      <path d="M254 154 L254 154" style="fill:none; clip-path:url(#clipPath1);" transform="translate(-81,-33)" />
      <circle transform="translate(-81,-33)" style="clip-path:url(#clipPath26); fill:rgb(64,64,64); stroke:none;" r="3" cx="254" cy="154" />
      <circle transform="translate(-81,-33)" style="clip-path:url(#clipPath26); fill:none;" r="3" cx="254" cy="154" />
      <path d="M254 154 L254 154" style="fill:none; clip-path:url(#clipPath1);" transform="translate(-81,-33)" />
      <circle transform="translate(-81,-33)" style="clip-path:url(#clipPath26); fill:rgb(64,64,64); stroke:none;" r="3" cx="254" cy="154" />
      <circle transform="translate(-81,-33)" style="clip-path:url(#clipPath26); fill:none;" r="3" cx="254" cy="154" />
      <path d="M429 154 L429 154" style="fill:none; clip-path:url(#clipPath1);" transform="translate(-81,-33)" />
      <circle transform="translate(-81,-33)" style="clip-path:url(#clipPath27); fill:rgb(64,64,64); stroke:none;" r="3" cx="429" cy="154" />
      <circle transform="translate(-81,-33)" style="clip-path:url(#clipPath27); fill:none;" r="3" cx="429" cy="154" />
      <path d="M429 154 L429 154" style="fill:none; clip-path:url(#clipPath1);" transform="translate(-81,-33)" />
      <circle transform="translate(-81,-33)" style="clip-path:url(#clipPath27); fill:rgb(64,64,64); stroke:none;" r="3" cx="429" cy="154" />
      <circle transform="translate(-81,-33)" style="clip-path:url(#clipPath27); fill:none;" r="3" cx="429" cy="154" />
      <path d="M190 136 L244 136" style="fill:none; clip-path:url(#clipPath1);" transform="translate(-81,-33)" />
      <polygon style="clip-path:url(#clipPath28); stroke:none;" transform="translate(-81,-33)" points=" 244 136 230 139 230 133" />
      <polygon style="fill:none; clip-path:url(#clipPath28);" transform="translate(-81,-33)" points=" 244 136 230 139 230 133" />
      <text x="2" y="13" transform="translate(109,88)" style="clip-path:url(#clipPath29); stroke:none; font-weight:normal;" xml:space="preserve">1:</text>
      <text x="2" y="13" transform="translate(125,88)" style="clip-path:url(#clipPath30); stroke:none; font-weight:normal;" xml:space="preserve">*</text>
      <path d="M190 136 L244 136" style="fill:none; clip-path:url(#clipPath1);" transform="translate(-81,-33)" />
      <polygon style="clip-path:url(#clipPath28); stroke:none;" transform="translate(-81,-33)" points=" 244 136 230 139 230 133" />
      <polygon style="fill:none; clip-path:url(#clipPath28);" transform="translate(-81,-33)" points=" 244 136 230 139 230 133" />
      <text x="2" y="13" transform="translate(109,88)" style="clip-path:url(#clipPath29); stroke:none; font-weight:normal;" xml:space="preserve">1:</text>
      <text x="2" y="13" transform="translate(125,88)" style="clip-path:url(#clipPath30); stroke:none; font-weight:normal;" xml:space="preserve">*</text>
      <path d="M264 207 L419 207" style="fill:none; clip-path:url(#clipPath1);" transform="translate(-81,-33)" />
      <polygon style="clip-path:url(#clipPath31); stroke:none;" transform="translate(-81,-33)" points=" 419 207 405 210 405 204" />
      <polygon style="fill:none; clip-path:url(#clipPath31);" transform="translate(-81,-33)" points=" 419 207 405 210 405 204" />
      <text x="2" y="13" transform="translate(183,159)" style="clip-path:url(#clipPath32); stroke:none; font-weight:normal;" xml:space="preserve">1.1:</text>
      <text x="0" y="13" transform="translate(213,159)" style="clip-path:url(#clipPath33); stroke:none; font-weight:normal;" xml:space="preserve">wuerfeln</text>
      <text x="57" y="13" transform="translate(213,159)" style="clip-path:url(#clipPath34); stroke:none; font-weight:normal;" xml:space="preserve">()</text>
      <path d="M264 207 L419 207" style="fill:none; clip-path:url(#clipPath1);" transform="translate(-81,-33)" />
      <polygon style="clip-path:url(#clipPath31); stroke:none;" transform="translate(-81,-33)" points=" 419 207 405 210 405 204" />
      <polygon style="fill:none; clip-path:url(#clipPath31);" transform="translate(-81,-33)" points=" 419 207 405 210 405 204" />
      <text x="2" y="13" transform="translate(183,159)" style="clip-path:url(#clipPath32); stroke:none; font-weight:normal;" xml:space="preserve">1.1:</text>
      <text x="0" y="13" transform="translate(213,159)" style="clip-path:url(#clipPath33); stroke:none; font-weight:normal;" xml:space="preserve">wuerfeln</text>
      <text x="57" y="13" transform="translate(213,159)" style="clip-path:url(#clipPath34); stroke:none; font-weight:normal;" xml:space="preserve">()</text>
      <path d="M264 260 L419 260" style="fill:none; clip-path:url(#clipPath1);" transform="translate(-81,-33)" />
      <polygon style="clip-path:url(#clipPath35); stroke:none;" transform="translate(-81,-33)" points=" 419 260 405 263 405 257" />
      <polygon style="fill:none; clip-path:url(#clipPath35);" transform="translate(-81,-33)" points=" 419 260 405 263 405 257" />
      <text x="2" y="13" transform="translate(183,212)" style="clip-path:url(#clipPath32); stroke:none; font-weight:normal;" xml:space="preserve">1.2:</text>
      <text x="0" y="13" transform="translate(213,212)" style="clip-path:url(#clipPath36); stroke:none; font-weight:normal;" xml:space="preserve">ziehen</text>
      <text x="43" y="13" transform="translate(213,212)" style="clip-path:url(#clipPath37); stroke:none; font-weight:normal;" xml:space="preserve">()</text>
      <path d="M264 260 L419 260" style="fill:none; clip-path:url(#clipPath1);" transform="translate(-81,-33)" />
      <polygon style="clip-path:url(#clipPath35); stroke:none;" transform="translate(-81,-33)" points=" 419 260 405 263 405 257" />
      <polygon style="fill:none; clip-path:url(#clipPath35);" transform="translate(-81,-33)" points=" 419 260 405 263 405 257" />
      <text x="2" y="13" transform="translate(183,212)" style="clip-path:url(#clipPath32); stroke:none; font-weight:normal;" xml:space="preserve">1.2:</text>
      <text x="0" y="13" transform="translate(213,212)" style="clip-path:url(#clipPath36); stroke:none; font-weight:normal;" xml:space="preserve">ziehen</text>
      <text x="43" y="13" transform="translate(213,212)" style="clip-path:url(#clipPath37); stroke:none; font-weight:normal;" xml:space="preserve">()</text>
    </g>
  </g>
</svg>
