<?xml version="1.0" encoding="UTF-8"?>

<!DOCTYPE svg PUBLIC '-//W3C//DTD SVG 1.0//EN' 'http://www.w3.org/TR/2001/REC-SVG-20010904/DTD/svg10.dtd'>
<svg style="fill-opacity:1; color-rendering:auto; color-interpolation:auto; text-rendering:auto; stroke:black; stroke-linecap:square; stroke-miterlimit:10; shape-rendering:auto; stroke-opacity:1; fill:black; stroke-dasharray:none; font-weight:normal; stroke-width:1; font-family:&apos;Dialog&apos;; font-style:normal; stroke-linejoin:miter; font-size:12; stroke-dashoffset:0; image-rendering:auto;" xmlns="http://www.w3.org/2000/svg" width="724" xmlns:xlink="http://www.w3.org/1999/xlink" height="522">
  <!--Generated by Selena using Batik-->
  <defs id="genericDefs" />
  <g>
    <defs id="defs1">
      <clipPath clipPathUnits="userSpaceOnUse" id="clipPath1">
        <path d="M0 0 L12000 0 L12000 12000 L0 12000 L0 0 Z" />
      </clipPath>
      <clipPath clipPathUnits="userSpaceOnUse" id="clipPath2">
        <path d="M10 10 L10 428 L575 428 L575 10 Z" />
      </clipPath>
      <clipPath clipPathUnits="userSpaceOnUse" id="clipPath3">
        <path d="M10 10 L10 27 L130 27 L130 10 Z" />
      </clipPath>
      <clipPath clipPathUnits="userSpaceOnUse" id="clipPath4">
        <path d="M0 0 L0 15 L22 15 L22 0 Z" />
      </clipPath>
      <clipPath clipPathUnits="userSpaceOnUse" id="clipPath5">
        <path d="M0 0 L0 15 L88 15 L88 0 Z" />
      </clipPath>
      <clipPath clipPathUnits="userSpaceOnUse" id="clipPath6">
        <path d="M85 105 L85 121 L101 121 L101 105 Z" />
      </clipPath>
      <clipPath clipPathUnits="userSpaceOnUse" id="clipPath7">
        <path d="M111 37 L111 97 L215 97 L215 37 Z" />
      </clipPath>
      <clipPath clipPathUnits="userSpaceOnUse" id="clipPath8">
        <path d="M298 37 L298 97 L376 97 L376 37 Z" />
      </clipPath>
      <clipPath clipPathUnits="userSpaceOnUse" id="clipPath9">
        <path d="M0 0 L0 15 L49 15 L49 0 Z" />
      </clipPath>
      <clipPath clipPathUnits="userSpaceOnUse" id="clipPath10">
        <path d="M49 0 L49 15 L94 15 L94 0 Z" />
      </clipPath>
      <clipPath clipPathUnits="userSpaceOnUse" id="clipPath11">
        <path d="M111 97 L111 343 L215 343 L215 97 Z" />
      </clipPath>
      <clipPath clipPathUnits="userSpaceOnUse" id="clipPath12">
        <path d="M153 113 L153 317 L173 317 L173 113 Z" />
      </clipPath>
      <clipPath clipPathUnits="userSpaceOnUse" id="clipPath13">
        <path d="M153 139 L153 163 L173 163 L173 139 Z" />
      </clipPath>
      <clipPath clipPathUnits="userSpaceOnUse" id="clipPath14">
        <path d="M153 185 L153 209 L173 209 L173 185 Z" />
      </clipPath>
      <clipPath clipPathUnits="userSpaceOnUse" id="clipPath15">
        <path d="M153 231 L153 255 L173 255 L173 231 Z" />
      </clipPath>
      <clipPath clipPathUnits="userSpaceOnUse" id="clipPath16">
        <path d="M153 277 L153 301 L173 301 L173 277 Z" />
      </clipPath>
      <clipPath clipPathUnits="userSpaceOnUse" id="clipPath17">
        <path d="M0 0 L0 15 L36 15 L36 0 Z" />
      </clipPath>
      <clipPath clipPathUnits="userSpaceOnUse" id="clipPath18">
        <path d="M36 0 L36 15 L68 15 L68 0 Z" />
      </clipPath>
      <clipPath clipPathUnits="userSpaceOnUse" id="clipPath19">
        <path d="M298 97 L298 343 L376 343 L376 97 Z" />
      </clipPath>
      <clipPath clipPathUnits="userSpaceOnUse" id="clipPath20">
        <path d="M327 139 L327 163 L347 163 L347 139 Z" />
      </clipPath>
      <clipPath clipPathUnits="userSpaceOnUse" id="clipPath21">
        <path d="M327 185 L327 209 L347 209 L347 185 Z" />
      </clipPath>
      <clipPath clipPathUnits="userSpaceOnUse" id="clipPath22">
        <path d="M327 231 L327 255 L347 255 L347 231 Z" />
      </clipPath>
      <clipPath clipPathUnits="userSpaceOnUse" id="clipPath23">
        <path d="M327 277 L327 301 L347 301 L347 277 Z" />
      </clipPath>
      <clipPath clipPathUnits="userSpaceOnUse" id="clipPath24">
        <path d="M139 110 L139 117 L154 117 L154 110 Z" />
      </clipPath>
      <clipPath clipPathUnits="userSpaceOnUse" id="clipPath25">
        <path d="M0 0 L0 15 L16 15 L16 0 Z" />
      </clipPath>
      <clipPath clipPathUnits="userSpaceOnUse" id="clipPath26">
        <path d="M0 0 L0 15 L11 15 L11 0 Z" />
      </clipPath>
      <clipPath clipPathUnits="userSpaceOnUse" id="clipPath27">
        <path d="M313 136 L313 143 L328 143 L328 136 Z" />
      </clipPath>
      <clipPath clipPathUnits="userSpaceOnUse" id="clipPath28">
        <path d="M0 0 L0 15 L28 15 L28 0 Z" />
      </clipPath>
      <clipPath clipPathUnits="userSpaceOnUse" id="clipPath29">
        <path d="M0 0 L0 15 L110 15 L110 0 Z" />
      </clipPath>
      <clipPath clipPathUnits="userSpaceOnUse" id="clipPath30">
        <path d="M110 0 L110 15 L120 15 L120 0 Z" />
      </clipPath>
      <clipPath clipPathUnits="userSpaceOnUse" id="clipPath31">
        <path d="M313 228 L313 235 L328 235 L328 228 Z" />
      </clipPath>
      <clipPath clipPathUnits="userSpaceOnUse" id="clipPath32">
        <path d="M0 0 L0 15 L66 15 L66 0 Z" />
      </clipPath>
      <clipPath clipPathUnits="userSpaceOnUse" id="clipPath33">
        <path d="M66 0 L66 15 L76 15 L76 0 Z" />
      </clipPath>
      <clipPath clipPathUnits="userSpaceOnUse" id="clipPath34">
        <path d="M313 182 L313 189 L328 189 L328 182 Z" />
      </clipPath>
      <clipPath clipPathUnits="userSpaceOnUse" id="clipPath35">
        <path d="M0 0 L0 15 L42 15 L42 0 Z" />
      </clipPath>
      <clipPath clipPathUnits="userSpaceOnUse" id="clipPath36">
        <path d="M42 0 L42 15 L52 15 L52 0 Z" />
      </clipPath>
      <clipPath clipPathUnits="userSpaceOnUse" id="clipPath37">
        <path d="M313 274 L313 281 L328 281 L328 274 Z" />
      </clipPath>
      <clipPath clipPathUnits="userSpaceOnUse" id="clipPath38">
        <path d="M0 0 L0 15 L59 15 L59 0 Z" />
      </clipPath>
      <clipPath clipPathUnits="userSpaceOnUse" id="clipPath39">
        <path d="M59 0 L59 15 L69 15 L69 0 Z" />
      </clipPath>
    </defs>
    <g style="fill:white; stroke:white;">
      <rect x="0" y="0" width="724" style="clip-path:url(#clipPath1); stroke:none;" height="522" />
      <rect x="0" y="0" width="723" style="clip-path:url(#clipPath1); fill:none; stroke:blue;" height="521" />
      <rect x="10" y="10" width="565" style="clip-path:url(#clipPath2); stroke:none;" height="418" />
      <rect x="10" y="10" width="564" style="clip-path:url(#clipPath2); fill:none; stroke:black;" height="417" />
      <polygon style="clip-path:url(#clipPath3); stroke:none;" points=" 10 10 129 10 129 21 124 26 10 26 10 10" />
      <polygon style="fill:none; clip-path:url(#clipPath3); stroke:black;" points=" 10 10 129 10 129 21 124 26 10 26 10 10" />
    </g>
    <g style="font-size:13; font-weight:bold;" transform="translate(15,10)">
      <text x="0" y="13" style="clip-path:url(#clipPath4); stroke:none;" xml:space="preserve">sd </text>
      <text x="0" y="13" transform="translate(22,0)" style="clip-path:url(#clipPath5); stroke:none; font-weight:normal;" xml:space="preserve">Wissensfrage</text>
      <circle transform="translate(-12,-7)" style="clip-path:url(#clipPath6); fill:rgb(153,153,153); stroke:none;" r="4" cx="93" cy="113" />
      <rect x="111" y="37" transform="translate(-12,-7)" width="104" style="clip-path:url(#clipPath7); fill:rgb(153,153,153); stroke:none;" height="60" />
      <rect x="111" y="37" transform="translate(-12,-7)" width="103" style="clip-path:url(#clipPath7); fill:none; stroke:rgb(153,153,153);" height="59" />
      <rect x="298" y="37" transform="translate(-12,-7)" width="78" style="clip-path:url(#clipPath8); fill:rgb(153,153,153); stroke:none;" height="60" />
      <rect x="298" y="37" transform="translate(-12,-7)" width="77" style="clip-path:url(#clipPath8); fill:none; stroke:rgb(153,153,153);" height="59" />
      <circle transform="translate(-15,-10)" style="clip-path:url(#clipPath6); stroke:none;" r="4" cx="93" cy="113" />
      <rect x="111" y="37" transform="translate(-15,-10)" width="104" style="clip-path:url(#clipPath7); fill:white; stroke:none;" height="60" />
      <rect x="111" y="37" transform="translate(-15,-10)" width="103" style="clip-path:url(#clipPath7); fill:none;" height="59" />
      <text x="0" y="13" transform="translate(101,27)" style="clip-path:url(#clipPath9); stroke:none; font-weight:normal;" xml:space="preserve">Spieler:</text>
      <text x="49" y="13" transform="translate(101,27)" style="clip-path:url(#clipPath10); stroke:none; font-weight:normal;" xml:space="preserve">Spieler</text>
      <line transform="translate(-15,-10)" x1="163" x2="163" y1="97" style="clip-path:url(#clipPath11); fill:none;" y2="343" />
      <rect x="153" y="113" transform="translate(-15,-10)" width="20" style="clip-path:url(#clipPath12); fill:white; stroke:none;" height="204" />
      <rect x="153" y="113" transform="translate(-15,-10)" width="19" style="clip-path:url(#clipPath12); fill:none;" height="203" />
      <rect x="155" y="139" transform="translate(-15,-10)" width="17" style="clip-path:url(#clipPath13); fill:rgb(240,240,240); stroke:none;" height="24" />
      <rect x="155" y="185" transform="translate(-15,-10)" width="17" style="clip-path:url(#clipPath14); fill:rgb(240,240,240); stroke:none;" height="24" />
      <rect x="155" y="231" transform="translate(-15,-10)" width="17" style="clip-path:url(#clipPath15); fill:rgb(240,240,240); stroke:none;" height="24" />
      <rect x="155" y="277" transform="translate(-15,-10)" width="17" style="clip-path:url(#clipPath16); fill:rgb(240,240,240); stroke:none;" height="24" />
      <rect x="298" y="37" transform="translate(-15,-10)" width="78" style="clip-path:url(#clipPath8); fill:white; stroke:none;" height="60" />
      <rect x="298" y="37" transform="translate(-15,-10)" width="77" style="clip-path:url(#clipPath8); fill:none;" height="59" />
      <text x="0" y="13" transform="translate(288,27)" style="clip-path:url(#clipPath17); stroke:none; font-weight:normal;" xml:space="preserve">Spiel:</text>
      <text x="36" y="13" transform="translate(288,27)" style="clip-path:url(#clipPath18); stroke:none; font-weight:normal;" xml:space="preserve">Spiel</text>
      <line transform="translate(-15,-10)" x1="337" x2="337" y1="97" style="clip-path:url(#clipPath19); fill:none;" y2="343" />
      <rect x="327" y="139" transform="translate(-15,-10)" width="20" style="clip-path:url(#clipPath20); fill:white; stroke:none;" height="24" />
      <rect x="327" y="139" transform="translate(-15,-10)" width="19" style="clip-path:url(#clipPath20); fill:none;" height="23" />
      <rect x="327" y="185" transform="translate(-15,-10)" width="20" style="clip-path:url(#clipPath21); fill:white; stroke:none;" height="24" />
      <rect x="327" y="185" transform="translate(-15,-10)" width="19" style="clip-path:url(#clipPath21); fill:none;" height="23" />
      <rect x="327" y="231" transform="translate(-15,-10)" width="20" style="clip-path:url(#clipPath22); fill:white; stroke:none;" height="24" />
      <rect x="327" y="231" transform="translate(-15,-10)" width="19" style="clip-path:url(#clipPath22); fill:none;" height="23" />
      <rect x="327" y="277" transform="translate(-15,-10)" width="20" style="clip-path:url(#clipPath23); fill:white; stroke:none;" height="24" />
      <rect x="327" y="277" transform="translate(-15,-10)" width="19" style="clip-path:url(#clipPath23); fill:none;" height="23" />
      <path d="M93 113 L153 113" style="fill:none; clip-path:url(#clipPath1);" transform="translate(-15,-10)" />
      <polygon style="clip-path:url(#clipPath24); stroke:none;" transform="translate(-15,-10)" points=" 153 113 139 116 139 110" />
      <polygon style="fill:none; clip-path:url(#clipPath24);" transform="translate(-15,-10)" points=" 153 113 139 116 139 110" />
      <text x="2" y="13" transform="translate(78,88)" style="clip-path:url(#clipPath25); stroke:none; font-weight:normal;" xml:space="preserve">1:</text>
      <text x="2" y="13" transform="translate(94,88)" style="clip-path:url(#clipPath26); stroke:none; font-weight:normal;" xml:space="preserve">*</text>
      <path d="M93 113 L153 113" style="fill:none; clip-path:url(#clipPath1);" transform="translate(-15,-10)" />
      <polygon style="clip-path:url(#clipPath24); stroke:none;" transform="translate(-15,-10)" points=" 153 113 139 116 139 110" />
      <polygon style="fill:none; clip-path:url(#clipPath24);" transform="translate(-15,-10)" points=" 153 113 139 116 139 110" />
      <text x="2" y="13" transform="translate(78,88)" style="clip-path:url(#clipPath25); stroke:none; font-weight:normal;" xml:space="preserve">1:</text>
      <text x="2" y="13" transform="translate(94,88)" style="clip-path:url(#clipPath26); stroke:none; font-weight:normal;" xml:space="preserve">*</text>
      <path d="M173 139 L327 139" style="fill:none; clip-path:url(#clipPath1);" transform="translate(-15,-10)" />
      <polygon style="clip-path:url(#clipPath27); stroke:none;" transform="translate(-15,-10)" points=" 327 139 313 142 313 136" />
      <polygon style="fill:none; clip-path:url(#clipPath27);" transform="translate(-15,-10)" points=" 327 139 313 142 313 136" />
      <text x="2" y="13" transform="translate(158,114)" style="clip-path:url(#clipPath28); stroke:none; font-weight:normal;" xml:space="preserve">1.1:</text>
      <text x="0" y="13" transform="translate(188,114)" style="clip-path:url(#clipPath29); stroke:none; font-weight:normal;" xml:space="preserve">waehleKategorie</text>
      <text x="110" y="13" transform="translate(188,114)" style="clip-path:url(#clipPath30); stroke:none; font-weight:normal;" xml:space="preserve">()</text>
      <path d="M173 139 L327 139" style="fill:none; clip-path:url(#clipPath1);" transform="translate(-15,-10)" />
      <polygon style="clip-path:url(#clipPath27); stroke:none;" transform="translate(-15,-10)" points=" 327 139 313 142 313 136" />
      <polygon style="fill:none; clip-path:url(#clipPath27);" transform="translate(-15,-10)" points=" 327 139 313 142 313 136" />
      <text x="2" y="13" transform="translate(158,114)" style="clip-path:url(#clipPath28); stroke:none; font-weight:normal;" xml:space="preserve">1.1:</text>
      <text x="0" y="13" transform="translate(188,114)" style="clip-path:url(#clipPath29); stroke:none; font-weight:normal;" xml:space="preserve">waehleKategorie</text>
      <text x="110" y="13" transform="translate(188,114)" style="clip-path:url(#clipPath30); stroke:none; font-weight:normal;" xml:space="preserve">()</text>
      <path d="M173 231 L327 231" style="fill:none; clip-path:url(#clipPath1);" transform="translate(-15,-10)" />
      <polygon style="clip-path:url(#clipPath31); stroke:none;" transform="translate(-15,-10)" points=" 327 231 313 234 313 228" />
      <polygon style="fill:none; clip-path:url(#clipPath31);" transform="translate(-15,-10)" points=" 327 231 313 234 313 228" />
      <text x="2" y="13" transform="translate(158,206)" style="clip-path:url(#clipPath28); stroke:none; font-weight:normal;" xml:space="preserve">1.3:</text>
      <text x="0" y="13" transform="translate(188,206)" style="clip-path:url(#clipPath32); stroke:none; font-weight:normal;" xml:space="preserve">antworten</text>
      <text x="66" y="13" transform="translate(188,206)" style="clip-path:url(#clipPath33); stroke:none; font-weight:normal;" xml:space="preserve">()</text>
      <path d="M173 231 L327 231" style="fill:none; clip-path:url(#clipPath1);" transform="translate(-15,-10)" />
      <polygon style="clip-path:url(#clipPath31); stroke:none;" transform="translate(-15,-10)" points=" 327 231 313 234 313 228" />
      <polygon style="fill:none; clip-path:url(#clipPath31);" transform="translate(-15,-10)" points=" 327 231 313 234 313 228" />
      <text x="2" y="13" transform="translate(158,206)" style="clip-path:url(#clipPath28); stroke:none; font-weight:normal;" xml:space="preserve">1.3:</text>
      <text x="0" y="13" transform="translate(188,206)" style="clip-path:url(#clipPath32); stroke:none; font-weight:normal;" xml:space="preserve">antworten</text>
      <text x="66" y="13" transform="translate(188,206)" style="clip-path:url(#clipPath33); stroke:none; font-weight:normal;" xml:space="preserve">()</text>
      <path d="M173 185 L327 185" style="fill:none; clip-path:url(#clipPath1);" transform="translate(-15,-10)" />
      <polygon style="clip-path:url(#clipPath34); stroke:none;" transform="translate(-15,-10)" points=" 327 185 313 188 313 182" />
      <polygon style="fill:none; clip-path:url(#clipPath34);" transform="translate(-15,-10)" points=" 327 185 313 188 313 182" />
      <text x="2" y="13" transform="translate(158,160)" style="clip-path:url(#clipPath28); stroke:none; font-weight:normal;" xml:space="preserve">1.2:</text>
      <text x="0" y="13" transform="translate(188,160)" style="clip-path:url(#clipPath35); stroke:none; font-weight:normal;" xml:space="preserve">fragen</text>
      <text x="42" y="13" transform="translate(188,160)" style="clip-path:url(#clipPath36); stroke:none; font-weight:normal;" xml:space="preserve">()</text>
      <path d="M173 185 L327 185" style="fill:none; clip-path:url(#clipPath1);" transform="translate(-15,-10)" />
      <polygon style="clip-path:url(#clipPath34); stroke:none;" transform="translate(-15,-10)" points=" 327 185 313 188 313 182" />
      <polygon style="fill:none; clip-path:url(#clipPath34);" transform="translate(-15,-10)" points=" 327 185 313 188 313 182" />
      <text x="2" y="13" transform="translate(158,160)" style="clip-path:url(#clipPath28); stroke:none; font-weight:normal;" xml:space="preserve">1.2:</text>
      <text x="0" y="13" transform="translate(188,160)" style="clip-path:url(#clipPath35); stroke:none; font-weight:normal;" xml:space="preserve">fragen</text>
      <text x="42" y="13" transform="translate(188,160)" style="clip-path:url(#clipPath36); stroke:none; font-weight:normal;" xml:space="preserve">()</text>
      <path d="M173 277 L327 277" style="fill:none; clip-path:url(#clipPath1);" transform="translate(-15,-10)" />
      <polygon style="clip-path:url(#clipPath37); stroke:none;" transform="translate(-15,-10)" points=" 327 277 313 280 313 274" />
      <polygon style="fill:none; clip-path:url(#clipPath37);" transform="translate(-15,-10)" points=" 327 277 313 280 313 274" />
      <text x="2" y="13" transform="translate(158,252)" style="clip-path:url(#clipPath28); stroke:none; font-weight:normal;" xml:space="preserve">1.4:</text>
      <text x="0" y="13" transform="translate(188,252)" style="clip-path:url(#clipPath38); stroke:none; font-weight:normal;" xml:space="preserve">bewegen</text>
      <text x="59" y="13" transform="translate(188,252)" style="clip-path:url(#clipPath39); stroke:none; font-weight:normal;" xml:space="preserve">()</text>
      <path d="M173 277 L327 277" style="fill:none; clip-path:url(#clipPath1);" transform="translate(-15,-10)" />
      <polygon style="clip-path:url(#clipPath37); stroke:none;" transform="translate(-15,-10)" points=" 327 277 313 280 313 274" />
      <polygon style="fill:none; clip-path:url(#clipPath37);" transform="translate(-15,-10)" points=" 327 277 313 280 313 274" />
      <text x="2" y="13" transform="translate(158,252)" style="clip-path:url(#clipPath28); stroke:none; font-weight:normal;" xml:space="preserve">1.4:</text>
      <text x="0" y="13" transform="translate(188,252)" style="clip-path:url(#clipPath38); stroke:none; font-weight:normal;" xml:space="preserve">bewegen</text>
      <text x="59" y="13" transform="translate(188,252)" style="clip-path:url(#clipPath39); stroke:none; font-weight:normal;" xml:space="preserve">()</text>
    </g>
  </g>
</svg>
