<?xml version="1.0" encoding="UTF-8"?>

<!DOCTYPE svg PUBLIC '-//W3C//DTD SVG 1.0//EN' 'http://www.w3.org/TR/2001/REC-SVG-20010904/DTD/svg10.dtd'>
<svg style="fill-opacity:1; color-rendering:auto; color-interpolation:auto; text-rendering:auto; stroke:black; stroke-linecap:square; stroke-miterlimit:10; shape-rendering:auto; stroke-opacity:1; fill:black; stroke-dasharray:none; font-weight:normal; stroke-width:1; font-family:&apos;Dialog&apos;; font-style:normal; stroke-linejoin:miter; font-size:12; stroke-dashoffset:0; image-rendering:auto;" xmlns="http://www.w3.org/2000/svg" width="1825" xmlns:xlink="http://www.w3.org/1999/xlink" height="939">
  <!--Generated by Selena using Batik-->
  <defs id="genericDefs" />
  <g>
    <defs id="defs1">
      <clipPath clipPathUnits="userSpaceOnUse" id="clipPath1">
        <path d="M0 0 L12000 0 L12000 12000 L0 12000 L0 0 Z" />
      </clipPath>
      <clipPath clipPathUnits="userSpaceOnUse" id="clipPath2">
        <path d="M120 60 L120 926 L1820 926 L1820 60 Z" />
      </clipPath>
      <clipPath clipPathUnits="userSpaceOnUse" id="clipPath3">
        <path d="M817 0 L817 15 L872 15 L872 0 Z" />
      </clipPath>
      <clipPath clipPathUnits="userSpaceOnUse" id="clipPath4">
        <path d="M165 81 L165 923 L1234 923 L1234 81 Z" />
      </clipPath>
      <clipPath clipPathUnits="userSpaceOnUse" id="clipPath5">
        <path d="M165 81 L165 96 L1234 96 L1234 81 Z" />
      </clipPath>
      <clipPath clipPathUnits="userSpaceOnUse" id="clipPath6">
        <path d="M507 0 L507 15 L552 15 L552 0 Z" />
      </clipPath>
      <clipPath clipPathUnits="userSpaceOnUse" id="clipPath7">
        <path d="M255 113 L255 143 L335 143 L335 113 Z" />
      </clipPath>
      <clipPath clipPathUnits="userSpaceOnUse" id="clipPath8">
        <path d="M906 113 L906 143 L986 143 L986 113 Z" />
      </clipPath>
      <clipPath clipPathUnits="userSpaceOnUse" id="clipPath9">
        <path d="M655 113 L655 143 L735 143 L735 113 Z" />
      </clipPath>
      <clipPath clipPathUnits="userSpaceOnUse" id="clipPath10">
        <path d="M220 120 L220 135 L235 135 L235 120 Z" />
      </clipPath>
      <clipPath clipPathUnits="userSpaceOnUse" id="clipPath11">
        <path d="M359 113 L359 143 L419 143 L419 113 Z" />
      </clipPath>
      <clipPath clipPathUnits="userSpaceOnUse" id="clipPath12">
        <path d="M511 113 L511 143 L571 143 L571 113 Z" />
      </clipPath>
      <clipPath clipPathUnits="userSpaceOnUse" id="clipPath13">
        <path d="M773 113 L773 143 L833 143 L833 113 Z" />
      </clipPath>
      <clipPath clipPathUnits="userSpaceOnUse" id="clipPath14">
        <path d="M1051 113 L1051 143 L1111 143 L1111 113 Z" />
      </clipPath>
      <clipPath clipPathUnits="userSpaceOnUse" id="clipPath15">
        <path d="M354 255 L354 285 L414 285 L414 255 Z" />
      </clipPath>
      <clipPath clipPathUnits="userSpaceOnUse" id="clipPath16">
        <path d="M354 371 L354 401 L414 401 L414 371 Z" />
      </clipPath>
      <clipPath clipPathUnits="userSpaceOnUse" id="clipPath17">
        <path d="M204 485 L204 515 L370 515 L370 485 Z" />
      </clipPath>
      <clipPath clipPathUnits="userSpaceOnUse" id="clipPath18">
        <path d="M354 207 L354 237 L414 237 L414 207 Z" />
      </clipPath>
      <clipPath clipPathUnits="userSpaceOnUse" id="clipPath19">
        <path d="M176 576 L176 606 L414 606 L414 576 Z" />
      </clipPath>
      <clipPath clipPathUnits="userSpaceOnUse" id="clipPath20">
        <path d="M10 0 L10 15 L59 15 L59 0 Z" />
      </clipPath>
      <clipPath clipPathUnits="userSpaceOnUse" id="clipPath21">
        <path d="M0 0 L0 15 L65 15 L65 0 Z" />
      </clipPath>
      <clipPath clipPathUnits="userSpaceOnUse" id="clipPath22">
        <path d="M0 0 L0 15 L163 15 L163 0 Z" />
      </clipPath>
      <clipPath clipPathUnits="userSpaceOnUse" id="clipPath23">
        <path d="M0 0 L0 15 L206 15 L206 0 Z" />
      </clipPath>
      <clipPath clipPathUnits="userSpaceOnUse" id="clipPath24">
        <path d="M0 0 L0 15 L193 15 L193 0 Z" />
      </clipPath>
      <clipPath clipPathUnits="userSpaceOnUse" id="clipPath25">
        <path d="M0 0 L0 15 L156 15 L156 0 Z" />
      </clipPath>
      <clipPath clipPathUnits="userSpaceOnUse" id="clipPath26">
        <path d="M3 0 L3 15 L7 15 L7 0 Z" />
      </clipPath>
      <clipPath clipPathUnits="userSpaceOnUse" id="clipPath27">
        <path d="M0 0 L0 15 L228 15 L228 0 Z" />
      </clipPath>
      <clipPath clipPathUnits="userSpaceOnUse" id="clipPath28">
        <path d="M1360 81 L1360 923 L1736 923 L1736 81 Z" />
      </clipPath>
      <clipPath clipPathUnits="userSpaceOnUse" id="clipPath29">
        <path d="M1360 81 L1360 96 L1736 96 L1736 81 Z" />
      </clipPath>
      <clipPath clipPathUnits="userSpaceOnUse" id="clipPath30">
        <path d="M167 0 L167 15 L199 15 L199 0 Z" />
      </clipPath>
      <clipPath clipPathUnits="userSpaceOnUse" id="clipPath31">
        <path d="M1416 486 L1416 516 L1696 516 L1696 486 Z" />
      </clipPath>
      <clipPath clipPathUnits="userSpaceOnUse" id="clipPath32">
        <path d="M0 0 L0 15 L270 15 L270 0 Z" />
      </clipPath>
      <clipPath clipPathUnits="userSpaceOnUse" id="clipPath33">
        <path d="M243 122 L243 133 L254 133 L254 122 Z" />
      </clipPath>
      <clipPath clipPathUnits="userSpaceOnUse" id="clipPath34">
        <path d="M348 122 L348 133 L359 133 L359 122 Z" />
      </clipPath>
      <clipPath clipPathUnits="userSpaceOnUse" id="clipPath35">
        <path d="M500 122 L500 133 L511 133 L511 122 Z" />
      </clipPath>
      <clipPath clipPathUnits="userSpaceOnUse" id="clipPath36">
        <path d="M0 0 L0 15 L38 15 L38 0 Z" />
      </clipPath>
      <clipPath clipPathUnits="userSpaceOnUse" id="clipPath37">
        <path d="M644 123 L644 134 L655 134 L655 123 Z" />
      </clipPath>
      <clipPath clipPathUnits="userSpaceOnUse" id="clipPath38">
        <path d="M762 122 L762 133 L773 133 L773 122 Z" />
      </clipPath>
      <clipPath clipPathUnits="userSpaceOnUse" id="clipPath39">
        <path d="M895 123 L895 134 L906 134 L906 123 Z" />
      </clipPath>
      <clipPath clipPathUnits="userSpaceOnUse" id="clipPath40">
        <path d="M1040 122 L1040 133 L1051 133 L1051 122 Z" />
      </clipPath>
      <clipPath clipPathUnits="userSpaceOnUse" id="clipPath41">
        <path d="M1572 475 L1572 486 L1583 486 L1583 475 Z" />
      </clipPath>
      <clipPath clipPathUnits="userSpaceOnUse" id="clipPath42">
        <path d="M380 195 L380 206 L391 206 L391 195 Z" />
      </clipPath>
      <clipPath clipPathUnits="userSpaceOnUse" id="clipPath43">
        <path d="M0 0 L0 15 L22 15 L22 0 Z" />
      </clipPath>
      <clipPath clipPathUnits="userSpaceOnUse" id="clipPath44">
        <path d="M1529 475 L1529 486 L1540 486 L1540 475 Z" />
      </clipPath>
      <clipPath clipPathUnits="userSpaceOnUse" id="clipPath45">
        <path d="M378 359 L378 370 L389 370 L389 359 Z" />
      </clipPath>
      <clipPath clipPathUnits="userSpaceOnUse" id="clipPath46">
        <path d="M226 473 L226 484 L237 484 L237 473 Z" />
      </clipPath>
      <clipPath clipPathUnits="userSpaceOnUse" id="clipPath47">
        <path d="M370 496 L370 507 L381 507 L381 496 Z" />
      </clipPath>
      <clipPath clipPathUnits="userSpaceOnUse" id="clipPath48">
        <path d="M378 243 L378 254 L389 254 L389 243 Z" />
      </clipPath>
      <clipPath clipPathUnits="userSpaceOnUse" id="clipPath49">
        <path d="M406 221 L406 232 L417 232 L417 221 Z" />
      </clipPath>
      <clipPath clipPathUnits="userSpaceOnUse" id="clipPath50">
        <path d="M407 221 L407 232 L418 232 L418 221 Z" />
      </clipPath>
      <clipPath clipPathUnits="userSpaceOnUse" id="clipPath51">
        <path d="M275 565 L275 576 L286 576 L286 565 Z" />
      </clipPath>
      <clipPath clipPathUnits="userSpaceOnUse" id="clipPath52">
        <path d="M1404 507 L1404 518 L1415 518 L1415 507 Z" />
      </clipPath>
    </defs>
    <g style="fill:white; stroke:white;">
      <rect x="0" y="0" width="1825" style="clip-path:url(#clipPath1); stroke:none;" height="939" />
      <rect x="0" y="0" width="1824" style="clip-path:url(#clipPath1); fill:none; stroke:blue;" height="938" />
      <rect x="120" y="60" width="1700" style="clip-path:url(#clipPath2); stroke:none;" rx="4" ry="4" height="866" />
      <rect x="120" y="60" width="1699" style="clip-path:url(#clipPath2); fill:none; stroke:black;" rx="4" ry="4" height="865" />
      <text x="817" y="13" transform="translate(125,60)" style="font-size:13; clip-path:url(#clipPath3); fill:black; stroke:none;" xml:space="preserve">Spielzug</text>
      <rect x="165" y="81" width="1069" style="clip-path:url(#clipPath4); stroke:none;" height="842" />
      <rect x="165" y="81" width="1068" style="clip-path:url(#clipPath4); fill:none; stroke:black;" height="841" />
      <rect x="165" y="81" width="1069" style="clip-path:url(#clipPath5); stroke:none;" height="15" />
      <rect x="165" y="81" width="1068" style="clip-path:url(#clipPath5); fill:none; stroke:black;" height="14" />
      <text x="507" y="13" transform="translate(170,81)" style="font-size:13; clip-path:url(#clipPath6); fill:black; stroke:none;" xml:space="preserve">Spieler</text>
      <rect x="255" y="113" transform="translate(3,3)" width="80" style="clip-path:url(#clipPath7); fill:rgb(153,153,153); stroke:none;" rx="4" ry="4" height="30" />
      <rect x="255" y="113" transform="translate(3,3)" width="79" style="clip-path:url(#clipPath7); fill:none; stroke:rgb(153,153,153);" rx="4" ry="4" height="29" />
      <rect x="906" y="113" transform="translate(3,3)" width="80" style="clip-path:url(#clipPath8); fill:rgb(153,153,153); stroke:none;" rx="4" ry="4" height="30" />
      <rect x="906" y="113" transform="translate(3,3)" width="79" style="clip-path:url(#clipPath8); fill:none; stroke:rgb(153,153,153);" rx="4" ry="4" height="29" />
      <rect x="655" y="113" transform="translate(3,3)" width="80" style="clip-path:url(#clipPath9); fill:rgb(153,153,153); stroke:none;" rx="4" ry="4" height="30" />
      <rect x="655" y="113" transform="translate(3,3)" width="79" style="clip-path:url(#clipPath9); fill:none; stroke:rgb(153,153,153);" rx="4" ry="4" height="29" />
      <circle transform="translate(3,3)" style="clip-path:url(#clipPath10); fill:rgb(153,153,153); stroke:none;" r="7" cx="227" cy="127" />
      <circle transform="translate(3,3)" style="clip-path:url(#clipPath10); fill:none; stroke:rgb(153,153,153);" r="7" cx="227" cy="127" />
      <polygon points=" 359 127 388 113 418 127 388 142 359 127" transform="translate(3,3)" style="fill:rgb(153,153,153); clip-path:url(#clipPath11); stroke:none;" />
      <polygon points=" 359 127 388 113 418 127 388 142 359 127" transform="translate(3,3)" style="fill:none; clip-path:url(#clipPath11); stroke:rgb(153,153,153);" />
      <polygon points=" 511 127 540 113 570 127 540 142 511 127" transform="translate(3,3)" style="fill:rgb(153,153,153); clip-path:url(#clipPath12); stroke:none;" />
      <polygon points=" 511 127 540 113 570 127 540 142 511 127" transform="translate(3,3)" style="fill:none; clip-path:url(#clipPath12); stroke:rgb(153,153,153);" />
      <polygon points=" 773 127 802 113 832 127 802 142 773 127" transform="translate(3,3)" style="fill:rgb(153,153,153); clip-path:url(#clipPath13); stroke:none;" />
      <polygon points=" 773 127 802 113 832 127 802 142 773 127" transform="translate(3,3)" style="fill:none; clip-path:url(#clipPath13); stroke:rgb(153,153,153);" />
      <polygon points=" 1051 127 1080 113 1110 127 1080 142 1051 127" transform="translate(3,3)" style="fill:rgb(153,153,153); clip-path:url(#clipPath14); stroke:none;" />
      <polygon points=" 1051 127 1080 113 1110 127 1080 142 1051 127" transform="translate(3,3)" style="fill:none; clip-path:url(#clipPath14); stroke:rgb(153,153,153);" />
      <polygon points=" 354 269 383 255 413 269 383 284 354 269" transform="translate(3,3)" style="fill:rgb(153,153,153); clip-path:url(#clipPath15); stroke:none;" />
      <polygon points=" 354 269 383 255 413 269 383 284 354 269" transform="translate(3,3)" style="fill:none; clip-path:url(#clipPath15); stroke:rgb(153,153,153);" />
      <polygon points=" 354 385 383 371 413 385 383 400 354 385" transform="translate(3,3)" style="fill:rgb(153,153,153); clip-path:url(#clipPath16); stroke:none;" />
      <polygon points=" 354 385 383 371 413 385 383 400 354 385" transform="translate(3,3)" style="fill:none; clip-path:url(#clipPath16); stroke:rgb(153,153,153);" />
      <rect x="204" y="485" transform="translate(3,3)" width="166" style="clip-path:url(#clipPath17); fill:rgb(153,153,153); stroke:none;" rx="4" ry="4" height="30" />
      <rect x="204" y="485" transform="translate(3,3)" width="165" style="clip-path:url(#clipPath17); fill:none; stroke:rgb(153,153,153);" rx="4" ry="4" height="29" />
      <polygon points=" 354 221 383 207 413 221 383 236 354 221" transform="translate(3,3)" style="fill:rgb(153,153,153); clip-path:url(#clipPath18); stroke:none;" />
      <polygon points=" 354 221 383 207 413 221 383 236 354 221" transform="translate(3,3)" style="fill:none; clip-path:url(#clipPath18); stroke:rgb(153,153,153);" />
      <rect x="176" y="576" transform="translate(3,3)" width="238" style="clip-path:url(#clipPath19); fill:rgb(153,153,153); stroke:none;" rx="4" ry="4" height="30" />
      <rect x="176" y="576" transform="translate(3,3)" width="237" style="clip-path:url(#clipPath19); fill:none; stroke:rgb(153,153,153);" rx="4" ry="4" height="29" />
      <rect x="255" y="113" width="80" style="clip-path:url(#clipPath7); stroke:none;" rx="4" ry="4" height="30" />
      <rect x="255" y="113" width="79" style="clip-path:url(#clipPath7); fill:none; stroke:black;" rx="4" ry="4" height="29" />
      <text x="10" y="13" transform="translate(260,120)" style="font-size:13; clip-path:url(#clipPath20); fill:black; stroke:none;" xml:space="preserve">würfeln</text>
      <rect x="906" y="113" width="80" style="clip-path:url(#clipPath8); stroke:none;" rx="4" ry="4" height="30" />
      <rect x="906" y="113" width="79" style="clip-path:url(#clipPath8); fill:none; stroke:black;" rx="4" ry="4" height="29" />
      <text x="10" y="13" transform="translate(911,120)" style="font-size:13; clip-path:url(#clipPath20); fill:black; stroke:none;" xml:space="preserve">würfeln</text>
      <rect x="655" y="113" width="80" style="clip-path:url(#clipPath9); stroke:none;" rx="4" ry="4" height="30" />
      <rect x="655" y="113" width="79" style="clip-path:url(#clipPath9); fill:none; stroke:black;" rx="4" ry="4" height="29" />
      <text x="10" y="13" transform="translate(660,120)" style="font-size:13; clip-path:url(#clipPath20); fill:black; stroke:none;" xml:space="preserve">würfeln</text>
      <circle style="clip-path:url(#clipPath10); fill:black; stroke:none;" r="7" cx="227" cy="127" />
      <circle style="clip-path:url(#clipPath10); fill:none; stroke:black;" r="7" cx="227" cy="127" />
      <polygon style="clip-path:url(#clipPath11); stroke:none;" points=" 359 127 388 113 418 127 388 142 359 127" />
      <polygon style="fill:none; clip-path:url(#clipPath11); stroke:black;" points=" 359 127 388 113 418 127 388 142 359 127" />
      <text x="0" y="13" transform="translate(357,153)" style="font-size:13; clip-path:url(#clipPath21); fill:black; stroke:none;" xml:space="preserve">würfelt 6?</text>
      <polygon style="clip-path:url(#clipPath12); stroke:none;" points=" 511 127 540 113 570 127 540 142 511 127" />
      <polygon style="fill:none; clip-path:url(#clipPath12); stroke:black;" points=" 511 127 540 113 570 127 540 142 511 127" />
      <text x="0" y="13" transform="translate(460,153)" style="font-size:13; clip-path:url(#clipPath22); fill:black; stroke:none;" xml:space="preserve">Wissensstreiter auf Feld?</text>
      <polygon style="clip-path:url(#clipPath13); stroke:none;" points=" 773 127 802 113 832 127 802 142 773 127" />
      <polygon style="fill:none; clip-path:url(#clipPath13); stroke:black;" points=" 773 127 802 113 832 127 802 142 773 127" />
      <text x="0" y="13" transform="translate(771,153)" style="font-size:13; clip-path:url(#clipPath21); fill:black; stroke:none;" xml:space="preserve">würfelt 6?</text>
      <polygon style="clip-path:url(#clipPath14); stroke:none;" points=" 1051 127 1080 113 1110 127 1080 142 1051 127" />
      <polygon style="fill:none; clip-path:url(#clipPath14); stroke:black;" points=" 1051 127 1080 113 1110 127 1080 142 1051 127" />
      <text x="0" y="13" transform="translate(1049,153)" style="font-size:13; clip-path:url(#clipPath21); fill:black; stroke:none;" xml:space="preserve">würfelt 6?</text>
      <polygon style="clip-path:url(#clipPath15); stroke:none;" points=" 354 269 383 255 413 269 383 284 354 269" />
      <polygon style="fill:none; clip-path:url(#clipPath15); stroke:black;" points=" 354 269 383 255 413 269 383 284 354 269" />
      <text x="0" y="13" transform="translate(281,295)" style="font-size:13; clip-path:url(#clipPath23); fill:black; stroke:none;" xml:space="preserve">Wissensstreiter im Heimatfeld?</text>
      <polygon style="clip-path:url(#clipPath16); stroke:none;" points=" 354 385 383 371 413 385 383 400 354 385" />
      <polygon style="fill:none; clip-path:url(#clipPath16); stroke:black;" points=" 354 385 383 371 413 385 383 400 354 385" />
      <text x="0" y="13" transform="translate(288,411)" style="font-size:13; clip-path:url(#clipPath24); fill:black; stroke:none;" xml:space="preserve">Wissensstreiter auf Startfeld?</text>
      <rect x="204" y="485" width="166" style="clip-path:url(#clipPath17); stroke:none;" rx="4" ry="4" height="30" />
      <rect x="204" y="485" width="165" style="clip-path:url(#clipPath17); fill:none; stroke:black;" rx="4" ry="4" height="29" />
      <text x="0" y="13" transform="translate(209,492)" style="font-size:13; clip-path:url(#clipPath25); fill:black; stroke:none;" xml:space="preserve">um Augenzahl bewegen</text>
      <polygon style="clip-path:url(#clipPath18); stroke:none;" points=" 354 221 383 207 413 221 383 236 354 221" />
      <polygon style="fill:none; clip-path:url(#clipPath18); stroke:black;" points=" 354 221 383 207 413 221 383 236 354 221" />
      <text x="3" y="13" transform="translate(379,247)" style="font-size:13; clip-path:url(#clipPath26); fill:black; stroke:none;" xml:space="preserve"> </text>
      <rect x="176" y="576" width="238" style="clip-path:url(#clipPath19); stroke:none;" rx="4" ry="4" height="30" />
      <rect x="176" y="576" width="237" style="clip-path:url(#clipPath19); fill:none; stroke:black;" rx="4" ry="4" height="29" />
      <text x="0" y="13" transform="translate(181,583)" style="font-size:13; clip-path:url(#clipPath27); fill:black; stroke:none;" xml:space="preserve">UseCase [Wissensfrage] ausführen</text>
      <rect x="1360" y="81" width="376" style="clip-path:url(#clipPath28); stroke:none;" height="842" />
      <rect x="1360" y="81" width="375" style="clip-path:url(#clipPath28); fill:none; stroke:black;" height="841" />
      <rect x="1360" y="81" width="376" style="clip-path:url(#clipPath29); stroke:none;" height="15" />
      <rect x="1360" y="81" width="375" style="clip-path:url(#clipPath29); fill:none; stroke:black;" height="14" />
      <text x="167" y="13" transform="translate(1365,81)" style="font-size:13; clip-path:url(#clipPath30); fill:black; stroke:none;" xml:space="preserve">Spiel</text>
      <rect x="1416" y="486" transform="translate(3,3)" width="280" style="clip-path:url(#clipPath31); fill:rgb(153,153,153); stroke:none;" rx="4" ry="4" height="30" />
      <rect x="1416" y="486" transform="translate(3,3)" width="279" style="clip-path:url(#clipPath31); fill:none; stroke:rgb(153,153,153);" rx="4" ry="4" height="29" />
      <rect x="1416" y="486" width="280" style="clip-path:url(#clipPath31); stroke:none;" rx="4" ry="4" height="30" />
      <rect x="1416" y="486" width="279" style="clip-path:url(#clipPath31); fill:none; stroke:black;" rx="4" ry="4" height="29" />
      <text x="0" y="13" transform="translate(1421,493)" style="font-size:13; clip-path:url(#clipPath32); fill:black; stroke:none;" xml:space="preserve">Gebe Spielzug weiter an nächsten Spieler</text>
      <path d="M234 126 L254 126" style="fill:none; clip-path:url(#clipPath1); stroke:rgb(0,0,127);" />
      <polygon style="fill:rgb(0,0,127); clip-path:url(#clipPath33); stroke:none;" points=" 253 127 243 122 253 127 243 132 253 127" />
      <polygon style="fill:none; clip-path:url(#clipPath33); stroke:rgb(0,0,127);" points=" 253 127 243 122 253 127 243 132 253 127" />
      <path d="M234 126 L254 126" style="fill:none; clip-path:url(#clipPath1); stroke:rgb(0,0,127);" />
      <polygon style="fill:rgb(0,0,127); clip-path:url(#clipPath33); stroke:none;" points=" 253 127 243 122 253 127 243 132 253 127" />
      <polygon style="fill:none; clip-path:url(#clipPath33); stroke:rgb(0,0,127);" points=" 253 127 243 122 253 127 243 132 253 127" />
      <path d="M334 128 L360 126" style="fill:none; clip-path:url(#clipPath1); stroke:rgb(0,0,127);" />
      <polygon style="fill:rgb(0,0,127); clip-path:url(#clipPath34); stroke:none;" points=" 358 127 348 122 358 127 348 132 358 127" />
      <polygon style="fill:none; clip-path:url(#clipPath34); stroke:rgb(0,0,127);" points=" 358 127 348 122 358 127 348 132 358 127" />
      <path d="M334 128 L360 126" style="fill:none; clip-path:url(#clipPath1); stroke:rgb(0,0,127);" />
      <polygon style="fill:rgb(0,0,127); clip-path:url(#clipPath34); stroke:none;" points=" 358 127 348 122 358 127 348 132 358 127" />
      <polygon style="fill:none; clip-path:url(#clipPath34); stroke:rgb(0,0,127);" points=" 358 127 348 122 358 127 348 132 358 127" />
      <path d="M418 128 L512 126" style="fill:none; clip-path:url(#clipPath1); stroke:rgb(0,0,127);" />
      <polygon style="fill:rgb(0,0,127); clip-path:url(#clipPath35); stroke:none;" points=" 510 127 500 122 510 127 500 132 510 127" />
      <polygon style="fill:none; clip-path:url(#clipPath35); stroke:rgb(0,0,127);" points=" 510 127 500 122 510 127 500 132 510 127" />
      <text x="0" y="13" transform="translate(446,107)" style="font-size:13; clip-path:url(#clipPath36); fill:black; stroke:none;" xml:space="preserve">[nein]</text>
      <path d="M418 128 L512 126" style="fill:none; clip-path:url(#clipPath1); stroke:rgb(0,0,127);" />
      <polygon style="fill:rgb(0,0,127); clip-path:url(#clipPath35); stroke:none;" points=" 510 127 500 122 510 127 500 132 510 127" />
      <polygon style="fill:none; clip-path:url(#clipPath35); stroke:rgb(0,0,127);" points=" 510 127 500 122 510 127 500 132 510 127" />
      <text x="0" y="13" transform="translate(446,107)" style="font-size:13; clip-path:url(#clipPath36); fill:black; stroke:none;" xml:space="preserve">[nein]</text>
      <path d="M570 128 L654 128" style="fill:none; clip-path:url(#clipPath1); stroke:rgb(0,0,127);" />
      <polygon style="fill:rgb(0,0,127); clip-path:url(#clipPath37); stroke:none;" points=" 654 128 644 123 654 128 644 133 654 128" />
      <polygon style="fill:none; clip-path:url(#clipPath37); stroke:rgb(0,0,127);" points=" 654 128 644 123 654 128 644 133 654 128" />
      <text x="0" y="13" transform="translate(593,108)" style="font-size:13; clip-path:url(#clipPath36); fill:black; stroke:none;" xml:space="preserve">[nein]</text>
      <path d="M570 128 L654 128" style="fill:none; clip-path:url(#clipPath1); stroke:rgb(0,0,127);" />
      <polygon style="fill:rgb(0,0,127); clip-path:url(#clipPath37); stroke:none;" points=" 654 128 644 123 654 128 644 133 654 128" />
      <polygon style="fill:none; clip-path:url(#clipPath37); stroke:rgb(0,0,127);" points=" 654 128 644 123 654 128 644 133 654 128" />
      <text x="0" y="13" transform="translate(593,108)" style="font-size:13; clip-path:url(#clipPath36); fill:black; stroke:none;" xml:space="preserve">[nein]</text>
      <path d="M734 128 L774 126" style="fill:none; clip-path:url(#clipPath1); stroke:rgb(0,0,127);" />
      <polygon style="fill:rgb(0,0,127); clip-path:url(#clipPath38); stroke:none;" points=" 772 127 762 122 772 127 762 132 772 127" />
      <polygon style="fill:none; clip-path:url(#clipPath38); stroke:rgb(0,0,127);" points=" 772 127 762 122 772 127 762 132 772 127" />
      <path d="M734 128 L774 126" style="fill:none; clip-path:url(#clipPath1); stroke:rgb(0,0,127);" />
      <polygon style="fill:rgb(0,0,127); clip-path:url(#clipPath38); stroke:none;" points=" 772 127 762 122 772 127 762 132 772 127" />
      <polygon style="fill:none; clip-path:url(#clipPath38); stroke:rgb(0,0,127);" points=" 772 127 762 122 772 127 762 132 772 127" />
      <path d="M832 128 L906 128" style="fill:none; clip-path:url(#clipPath1); stroke:rgb(0,0,127);" />
      <polygon style="fill:rgb(0,0,127); clip-path:url(#clipPath39); stroke:none;" points=" 905 128 895 123 905 128 895 133 905 128" />
      <polygon style="fill:none; clip-path:url(#clipPath39); stroke:rgb(0,0,127);" points=" 905 128 895 123 905 128 895 133 905 128" />
      <text x="0" y="13" transform="translate(850,108)" style="font-size:13; clip-path:url(#clipPath36); fill:black; stroke:none;" xml:space="preserve">[nein]</text>
      <path d="M832 128 L906 128" style="fill:none; clip-path:url(#clipPath1); stroke:rgb(0,0,127);" />
      <polygon style="fill:rgb(0,0,127); clip-path:url(#clipPath39); stroke:none;" points=" 905 128 895 123 905 128 895 133 905 128" />
      <polygon style="fill:none; clip-path:url(#clipPath39); stroke:rgb(0,0,127);" points=" 905 128 895 123 905 128 895 133 905 128" />
      <text x="0" y="13" transform="translate(850,108)" style="font-size:13; clip-path:url(#clipPath36); fill:black; stroke:none;" xml:space="preserve">[nein]</text>
      <path d="M986 128 L1052 126" style="fill:none; clip-path:url(#clipPath1); stroke:rgb(0,0,127);" />
      <polygon style="fill:rgb(0,0,127); clip-path:url(#clipPath40); stroke:none;" points=" 1050 127 1040 122 1050 127 1040 132 1050 127" />
      <polygon style="fill:none; clip-path:url(#clipPath40); stroke:rgb(0,0,127);" points=" 1050 127 1040 122 1050 127 1040 132 1050 127" />
      <path d="M986 128 L1052 126" style="fill:none; clip-path:url(#clipPath1); stroke:rgb(0,0,127);" />
      <polygon style="fill:rgb(0,0,127); clip-path:url(#clipPath40); stroke:none;" points=" 1050 127 1040 122 1050 127 1040 132 1050 127" />
      <polygon style="fill:none; clip-path:url(#clipPath40); stroke:rgb(0,0,127);" points=" 1050 127 1040 122 1050 127 1040 132 1050 127" />
      <path d="M1092 118 L1577 119 L1576 486" style="fill:none; clip-path:url(#clipPath1); stroke:rgb(0,0,127);" />
      <polygon style="fill:rgb(0,0,127); clip-path:url(#clipPath41); stroke:none;" points=" 1577 485 1582 475 1577 485 1572 475 1577 485" />
      <polygon style="fill:none; clip-path:url(#clipPath41); stroke:rgb(0,0,127);" points=" 1577 485 1582 475 1577 485 1572 475 1577 485" />
      <text x="0" y="13" transform="translate(1316,99)" style="font-size:13; clip-path:url(#clipPath36); fill:black; stroke:none;" xml:space="preserve">[nein]</text>
      <path d="M1092 118 L1577 119 L1576 486" style="fill:none; clip-path:url(#clipPath1); stroke:rgb(0,0,127);" />
      <polygon style="fill:rgb(0,0,127); clip-path:url(#clipPath41); stroke:none;" points=" 1577 485 1582 475 1577 485 1572 475 1577 485" />
      <polygon style="fill:none; clip-path:url(#clipPath41); stroke:rgb(0,0,127);" points=" 1577 485 1582 475 1577 485 1572 475 1577 485" />
      <text x="0" y="13" transform="translate(1316,99)" style="font-size:13; clip-path:url(#clipPath36); fill:black; stroke:none;" xml:space="preserve">[nein]</text>
      <path d="M386 140 L384 206" style="fill:none; clip-path:url(#clipPath1); stroke:rgb(0,0,127);" />
      <polygon style="fill:rgb(0,0,127); clip-path:url(#clipPath42); stroke:none;" points=" 385 205 390 195 385 205 380 195 385 205" />
      <polygon style="fill:none; clip-path:url(#clipPath42); stroke:rgb(0,0,127);" points=" 385 205 390 195 385 205 380 195 385 205" />
      <text x="0" y="13" transform="translate(390,167)" style="font-size:13; clip-path:url(#clipPath43); fill:black; stroke:none;" xml:space="preserve">[ja]</text>
      <path d="M386 140 L384 206" style="fill:none; clip-path:url(#clipPath1); stroke:rgb(0,0,127);" />
      <polygon style="fill:rgb(0,0,127); clip-path:url(#clipPath42); stroke:none;" points=" 385 205 390 195 385 205 380 195 385 205" />
      <polygon style="fill:none; clip-path:url(#clipPath42); stroke:rgb(0,0,127);" points=" 385 205 390 195 385 205 380 195 385 205" />
      <text x="0" y="13" transform="translate(390,167)" style="font-size:13; clip-path:url(#clipPath43); fill:black; stroke:none;" xml:space="preserve">[ja]</text>
      <path d="M412 386 L1534 386 L1534 486" style="fill:none; clip-path:url(#clipPath1); stroke:rgb(0,0,127);" />
      <polygon style="fill:rgb(0,0,127); clip-path:url(#clipPath44); stroke:none;" points=" 1534 485 1539 475 1534 485 1529 475 1534 485" />
      <polygon style="fill:none; clip-path:url(#clipPath44); stroke:rgb(0,0,127);" points=" 1534 485 1539 475 1534 485 1529 475 1534 485" />
      <text x="0" y="13" transform="translate(962,366)" style="font-size:13; clip-path:url(#clipPath43); fill:black; stroke:none;" xml:space="preserve">[ja]</text>
      <path d="M412 386 L1534 386 L1534 486" style="fill:none; clip-path:url(#clipPath1); stroke:rgb(0,0,127);" />
      <polygon style="fill:rgb(0,0,127); clip-path:url(#clipPath44); stroke:none;" points=" 1534 485 1539 475 1534 485 1529 475 1534 485" />
      <polygon style="fill:none; clip-path:url(#clipPath44); stroke:rgb(0,0,127);" points=" 1534 485 1539 475 1534 485 1529 475 1534 485" />
      <text x="0" y="13" transform="translate(962,366)" style="font-size:13; clip-path:url(#clipPath43); fill:black; stroke:none;" xml:space="preserve">[ja]</text>
      <path d="M382 284 L384 370" style="fill:none; clip-path:url(#clipPath1); stroke:rgb(0,0,127);" />
      <polygon style="fill:rgb(0,0,127); clip-path:url(#clipPath45); stroke:none;" points=" 383 369 388 359 383 369 378 359 383 369" />
      <polygon style="fill:none; clip-path:url(#clipPath45); stroke:rgb(0,0,127);" points=" 383 369 388 359 383 369 378 359 383 369" />
      <text x="0" y="13" transform="translate(388,320)" style="font-size:13; clip-path:url(#clipPath43); fill:black; stroke:none;" xml:space="preserve">[ja]</text>
      <path d="M382 284 L384 370" style="fill:none; clip-path:url(#clipPath1); stroke:rgb(0,0,127);" />
      <polygon style="fill:rgb(0,0,127); clip-path:url(#clipPath45); stroke:none;" points=" 383 369 388 359 383 369 378 359 383 369" />
      <polygon style="fill:none; clip-path:url(#clipPath45); stroke:rgb(0,0,127);" points=" 383 369 388 359 383 369 378 359 383 369" />
      <text x="0" y="13" transform="translate(388,320)" style="font-size:13; clip-path:url(#clipPath43); fill:black; stroke:none;" xml:space="preserve">[ja]</text>
      <path d="M354 268 L224 270 L232 484" style="fill:none; clip-path:url(#clipPath1); stroke:rgb(0,0,127);" />
      <polygon style="fill:rgb(0,0,127); clip-path:url(#clipPath46); stroke:none;" points=" 231 483 236 473 231 483 226 473 231 483" />
      <polygon style="fill:none; clip-path:url(#clipPath46); stroke:rgb(0,0,127);" points=" 231 483 236 473 231 483 226 473 231 483" />
      <text x="0" y="13" transform="translate(233,370)" style="font-size:13; clip-path:url(#clipPath36); fill:black; stroke:none;" xml:space="preserve">[nein]</text>
      <path d="M354 268 L224 270 L232 484" style="fill:none; clip-path:url(#clipPath1); stroke:rgb(0,0,127);" />
      <polygon style="fill:rgb(0,0,127); clip-path:url(#clipPath46); stroke:none;" points=" 231 483 236 473 231 483 226 473 231 483" />
      <polygon style="fill:none; clip-path:url(#clipPath46); stroke:rgb(0,0,127);" points=" 231 483 236 473 231 483 226 473 231 483" />
      <text x="0" y="13" transform="translate(233,370)" style="font-size:13; clip-path:url(#clipPath36); fill:black; stroke:none;" xml:space="preserve">[nein]</text>
      <path d="M540 142 L541 502 L370 502" style="fill:none; clip-path:url(#clipPath1); stroke:rgb(0,0,127);" />
      <polygon style="fill:rgb(0,0,127); clip-path:url(#clipPath47); stroke:none;" points=" 370 501 380 506 370 501 380 496 370 501" />
      <polygon style="fill:none; clip-path:url(#clipPath47); stroke:rgb(0,0,127);" points=" 370 501 380 506 370 501 380 496 370 501" />
      <text x="0" y="13" transform="translate(545,315)" style="font-size:13; clip-path:url(#clipPath43); fill:black; stroke:none;" xml:space="preserve">[ja]</text>
      <path d="M540 142 L541 502 L370 502" style="fill:none; clip-path:url(#clipPath1); stroke:rgb(0,0,127);" />
      <polygon style="fill:rgb(0,0,127); clip-path:url(#clipPath47); stroke:none;" points=" 370 501 380 506 370 501 380 496 370 501" />
      <polygon style="fill:none; clip-path:url(#clipPath47); stroke:rgb(0,0,127);" points=" 370 501 380 506 370 501 380 496 370 501" />
      <text x="0" y="13" transform="translate(545,315)" style="font-size:13; clip-path:url(#clipPath43); fill:black; stroke:none;" xml:space="preserve">[ja]</text>
      <path d="M382 236 L384 254" style="fill:none; clip-path:url(#clipPath1); stroke:rgb(0,0,127);" />
      <polygon style="fill:rgb(0,0,127); clip-path:url(#clipPath48); stroke:none;" points=" 383 253 388 243 383 253 378 243 383 253" />
      <polygon style="fill:none; clip-path:url(#clipPath48); stroke:rgb(0,0,127);" points=" 383 253 388 243 383 253 378 243 383 253" />
      <path d="M382 236 L384 254" style="fill:none; clip-path:url(#clipPath1); stroke:rgb(0,0,127);" />
      <polygon style="fill:rgb(0,0,127); clip-path:url(#clipPath48); stroke:none;" points=" 383 253 388 243 383 253 378 243 383 253" />
      <polygon style="fill:none; clip-path:url(#clipPath48); stroke:rgb(0,0,127);" points=" 383 253 388 243 383 253 378 243 383 253" />
      <path d="M802 142 L803 226 L406 226" style="fill:none; clip-path:url(#clipPath1); stroke:rgb(0,0,127);" />
      <polygon style="fill:rgb(0,0,127); clip-path:url(#clipPath49); stroke:none;" points=" 406 226 416 231 406 226 416 221 406 226" />
      <polygon style="fill:none; clip-path:url(#clipPath49); stroke:rgb(0,0,127);" points=" 406 226 416 231 406 226 416 221 406 226" />
      <text x="0" y="13" transform="translate(593,206)" style="font-size:13; clip-path:url(#clipPath43); fill:black; stroke:none;" xml:space="preserve">[ja]</text>
      <path d="M802 142 L803 226 L406 226" style="fill:none; clip-path:url(#clipPath1); stroke:rgb(0,0,127);" />
      <polygon style="fill:rgb(0,0,127); clip-path:url(#clipPath49); stroke:none;" points=" 406 226 416 231 406 226 416 221 406 226" />
      <polygon style="fill:none; clip-path:url(#clipPath49); stroke:rgb(0,0,127);" points=" 406 226 416 231 406 226 416 221 406 226" />
      <text x="0" y="13" transform="translate(593,206)" style="font-size:13; clip-path:url(#clipPath43); fill:black; stroke:none;" xml:space="preserve">[ja]</text>
      <path d="M1080 142 L1081 243 L406 226" style="fill:none; clip-path:url(#clipPath1); stroke:rgb(0,0,127);" />
      <polygon style="fill:rgb(0,0,127); clip-path:url(#clipPath50); stroke:none;" points=" 407 226 417 231 407 226 417 221 407 226" />
      <polygon style="fill:none; clip-path:url(#clipPath50); stroke:rgb(0,0,127);" points=" 407 226 417 231 407 226 417 221 407 226" />
      <text x="0" y="13" transform="translate(871,220)" style="font-size:13; clip-path:url(#clipPath43); fill:black; stroke:none;" xml:space="preserve">[ja]</text>
      <path d="M1080 142 L1081 243 L406 226" style="fill:none; clip-path:url(#clipPath1); stroke:rgb(0,0,127);" />
      <polygon style="fill:rgb(0,0,127); clip-path:url(#clipPath50); stroke:none;" points=" 407 226 417 231 407 226 417 221 407 226" />
      <polygon style="fill:none; clip-path:url(#clipPath50); stroke:rgb(0,0,127);" points=" 407 226 417 231 407 226 417 221 407 226" />
      <text x="0" y="13" transform="translate(871,220)" style="font-size:13; clip-path:url(#clipPath43); fill:black; stroke:none;" xml:space="preserve">[ja]</text>
      <path d="M280 514 L280 576" style="fill:none; clip-path:url(#clipPath1); stroke:rgb(0,0,127);" />
      <polygon style="fill:rgb(0,0,127); clip-path:url(#clipPath51); stroke:none;" points=" 280 575 285 565 280 575 275 565 280 575" />
      <polygon style="fill:none; clip-path:url(#clipPath51); stroke:rgb(0,0,127);" points=" 280 575 285 565 280 575 275 565 280 575" />
      <path d="M280 514 L280 576" style="fill:none; clip-path:url(#clipPath1); stroke:rgb(0,0,127);" />
      <polygon style="fill:rgb(0,0,127); clip-path:url(#clipPath51); stroke:none;" points=" 280 575 285 565 280 575 275 565 280 575" />
      <polygon style="fill:none; clip-path:url(#clipPath51); stroke:rgb(0,0,127);" points=" 280 575 285 565 280 575 275 565 280 575" />
      <path d="M414 582 L1416 510" style="fill:none; clip-path:url(#clipPath1); stroke:rgb(0,0,127);" />
      <polygon style="fill:rgb(0,0,127); clip-path:url(#clipPath52); stroke:none;" points=" 1414 511 1404 507 1414 511 1404 517 1414 511" />
      <polygon style="fill:none; clip-path:url(#clipPath52); stroke:rgb(0,0,127);" points=" 1414 511 1404 507 1414 511 1404 517 1414 511" />
      <path d="M414 582 L1416 510" style="fill:none; clip-path:url(#clipPath1); stroke:rgb(0,0,127);" />
      <polygon style="fill:rgb(0,0,127); clip-path:url(#clipPath52); stroke:none;" points=" 1414 511 1404 507 1414 511 1404 517 1414 511" />
      <polygon style="fill:none; clip-path:url(#clipPath52); stroke:rgb(0,0,127);" points=" 1414 511 1404 507 1414 511 1404 517 1414 511" />
    </g>
  </g>
</svg>
