<?xml version="1.0" encoding="UTF-8"?>

<!DOCTYPE svg PUBLIC '-//W3C//DTD SVG 1.0//EN' 'http://www.w3.org/TR/2001/REC-SVG-20010904/DTD/svg10.dtd'>
<svg style="fill-opacity:1; color-rendering:auto; color-interpolation:auto; text-rendering:auto; stroke:black; stroke-linecap:square; stroke-miterlimit:10; shape-rendering:auto; stroke-opacity:1; fill:black; stroke-dasharray:none; font-weight:normal; stroke-width:1; font-family:&apos;Dialog&apos;; font-style:normal; stroke-linejoin:miter; font-size:12; stroke-dashoffset:0; image-rendering:auto;" xmlns="http://www.w3.org/2000/svg" width="1318" xmlns:xlink="http://www.w3.org/1999/xlink" height="536">
  <!--Generated by Selena using Batik-->
  <defs id="genericDefs" />
  <g>
    <defs id="defs1">
      <clipPath clipPathUnits="userSpaceOnUse" id="clipPath1">
        <path d="M0 0 L12000 0 L12000 12000 L0 12000 L0 0 Z" />
      </clipPath>
      <clipPath clipPathUnits="userSpaceOnUse" id="clipPath2">
        <path d="M60 20 L60 441 L961 441 L961 20 Z" />
      </clipPath>
      <clipPath clipPathUnits="userSpaceOnUse" id="clipPath3">
        <path d="M404 0 L404 15 L486 15 L486 0 Z" />
      </clipPath>
      <clipPath clipPathUnits="userSpaceOnUse" id="clipPath4">
        <path d="M80 41 L80 438 L219 438 L219 41 Z" />
      </clipPath>
      <clipPath clipPathUnits="userSpaceOnUse" id="clipPath5">
        <path d="M80 41 L80 56 L219 56 L219 41 Z" />
      </clipPath>
      <clipPath clipPathUnits="userSpaceOnUse" id="clipPath6">
        <path d="M42 0 L42 15 L87 15 L87 0 Z" />
      </clipPath>
      <clipPath clipPathUnits="userSpaceOnUse" id="clipPath7">
        <path d="M98 120 L98 150 L178 150 L178 120 Z" />
      </clipPath>
      <clipPath clipPathUnits="userSpaceOnUse" id="clipPath8">
        <path d="M12 0 L12 15 L58 15 L58 0 Z" />
      </clipPath>
      <clipPath clipPathUnits="userSpaceOnUse" id="clipPath9">
        <path d="M240 41 L240 438 L941 438 L941 41 Z" />
      </clipPath>
      <clipPath clipPathUnits="userSpaceOnUse" id="clipPath10">
        <path d="M240 41 L240 56 L941 56 L941 41 Z" />
      </clipPath>
      <clipPath clipPathUnits="userSpaceOnUse" id="clipPath11">
        <path d="M329 0 L329 15 L361 15 L361 0 Z" />
      </clipPath>
      <clipPath clipPathUnits="userSpaceOnUse" id="clipPath12">
        <path d="M580 80 L580 110 L640 110 L640 80 Z" />
      </clipPath>
      <clipPath clipPathUnits="userSpaceOnUse" id="clipPath13">
        <path d="M300 80 L300 95 L315 95 L315 80 Z" />
      </clipPath>
      <clipPath clipPathUnits="userSpaceOnUse" id="clipPath14">
        <path d="M420 80 L420 110 L480 110 L480 80 Z" />
      </clipPath>
      <clipPath clipPathUnits="userSpaceOnUse" id="clipPath15">
        <path d="M580 200 L580 230 L640 230 L640 200 Z" />
      </clipPath>
      <clipPath clipPathUnits="userSpaceOnUse" id="clipPath16">
        <path d="M365 300 L365 330 L506 330 L506 300 Z" />
      </clipPath>
      <clipPath clipPathUnits="userSpaceOnUse" id="clipPath17">
        <path d="M580 300 L580 330 L847 330 L847 300 Z" />
      </clipPath>
      <clipPath clipPathUnits="userSpaceOnUse" id="clipPath18">
        <path d="M740 80 L740 110 L800 110 L800 80 Z" />
      </clipPath>
      <clipPath clipPathUnits="userSpaceOnUse" id="clipPath19">
        <path d="M380 380 L380 398 L398 398 L398 380 Z" />
      </clipPath>
      <clipPath clipPathUnits="userSpaceOnUse" id="clipPath20">
        <path d="M440 366 L440 411 L701 411 L701 366 Z" />
      </clipPath>
      <clipPath clipPathUnits="userSpaceOnUse" id="clipPath21">
        <path d="M0 0 L0 15 L192 15 L192 0 Z" />
      </clipPath>
      <clipPath clipPathUnits="userSpaceOnUse" id="clipPath22">
        <path d="M3 0 L3 15 L7 15 L7 0 Z" />
      </clipPath>
      <clipPath clipPathUnits="userSpaceOnUse" id="clipPath23">
        <path d="M0 0 L0 15 L208 15 L208 0 Z" />
      </clipPath>
      <clipPath clipPathUnits="userSpaceOnUse" id="clipPath24">
        <path d="M0 0 L0 15 L131 15 L131 0 Z" />
      </clipPath>
      <clipPath clipPathUnits="userSpaceOnUse" id="clipPath25">
        <path d="M0 0 L0 15 L257 15 L257 0 Z" />
      </clipPath>
      <clipPath clipPathUnits="userSpaceOnUse" id="clipPath26">
        <path d="M383 383 L383 395 L395 395 L395 383 Z" />
      </clipPath>
      <clipPath clipPathUnits="userSpaceOnUse" id="clipPath27">
        <path d="M0 0 L0 30 L233 30 L233 0 Z" />
      </clipPath>
      <clipPath clipPathUnits="userSpaceOnUse" id="clipPath28">
        <path d="M729 89 L729 100 L740 100 L740 89 Z" />
      </clipPath>
      <clipPath clipPathUnits="userSpaceOnUse" id="clipPath29">
        <path d="M0 0 L0 15 L38 15 L38 0 Z" />
      </clipPath>
      <clipPath clipPathUnits="userSpaceOnUse" id="clipPath30">
        <path d="M425 77 L425 88 L436 88 L436 77 Z" />
      </clipPath>
      <clipPath clipPathUnits="userSpaceOnUse" id="clipPath31">
        <path d="M569 89 L569 100 L580 100 L580 89 Z" />
      </clipPath>
      <clipPath clipPathUnits="userSpaceOnUse" id="clipPath32">
        <path d="M604 188 L604 199 L615 199 L615 188 Z" />
      </clipPath>
      <clipPath clipPathUnits="userSpaceOnUse" id="clipPath33">
        <path d="M0 0 L0 15 L22 15 L22 0 Z" />
      </clipPath>
      <clipPath clipPathUnits="userSpaceOnUse" id="clipPath34">
        <path d="M461 290 L461 300 L473 300 L473 290 Z" />
      </clipPath>
      <clipPath clipPathUnits="userSpaceOnUse" id="clipPath35">
        <path d="M604 288 L604 299 L615 299 L615 288 Z" />
      </clipPath>
      <clipPath clipPathUnits="userSpaceOnUse" id="clipPath36">
        <path d="M764 110 L764 121 L775 121 L775 110 Z" />
      </clipPath>
      <clipPath clipPathUnits="userSpaceOnUse" id="clipPath37">
        <path d="M384 369 L384 380 L395 380 L395 369 Z" />
      </clipPath>
      <clipPath clipPathUnits="userSpaceOnUse" id="clipPath38">
        <path d="M414 94 L414 105 L425 105 L425 94 Z" />
      </clipPath>
      <clipPath clipPathUnits="userSpaceOnUse" id="clipPath39">
        <path d="M178 130 L178 141 L189 141 L189 130 Z" />
      </clipPath>
    </defs>
    <g style="fill:white; stroke:white;">
      <rect x="0" y="0" width="1318" style="clip-path:url(#clipPath1); stroke:none;" height="536" />
      <rect x="0" y="0" width="1317" style="clip-path:url(#clipPath1); fill:none; stroke:blue;" height="535" />
      <rect x="60" y="20" width="901" style="clip-path:url(#clipPath2); stroke:none;" rx="4" ry="4" height="421" />
      <rect x="60" y="20" width="900" style="clip-path:url(#clipPath2); fill:none; stroke:black;" rx="4" ry="4" height="420" />
      <text x="404" y="13" transform="translate(65,20)" style="font-size:13; clip-path:url(#clipPath3); fill:black; stroke:none;" xml:space="preserve">Spiel starten</text>
      <rect x="80" y="41" width="139" style="clip-path:url(#clipPath4); stroke:none;" height="397" />
      <rect x="80" y="41" width="138" style="clip-path:url(#clipPath4); fill:none; stroke:black;" height="396" />
      <rect x="80" y="41" width="139" style="clip-path:url(#clipPath5); stroke:none;" height="15" />
      <rect x="80" y="41" width="138" style="clip-path:url(#clipPath5); fill:none; stroke:black;" height="14" />
      <text x="42" y="13" transform="translate(85,41)" style="font-size:13; clip-path:url(#clipPath6); fill:black; stroke:none;" xml:space="preserve">Spieler</text>
      <rect x="98" y="120" transform="translate(3,3)" width="80" style="clip-path:url(#clipPath7); fill:rgb(153,153,153); stroke:none;" rx="4" ry="4" height="30" />
      <rect x="98" y="120" transform="translate(3,3)" width="79" style="clip-path:url(#clipPath7); fill:none; stroke:rgb(153,153,153);" rx="4" ry="4" height="29" />
      <rect x="98" y="120" width="80" style="clip-path:url(#clipPath7); stroke:none;" rx="4" ry="4" height="30" />
      <rect x="98" y="120" width="79" style="clip-path:url(#clipPath7); fill:none; stroke:black;" rx="4" ry="4" height="29" />
      <text x="12" y="13" transform="translate(103,127)" style="font-size:13; clip-path:url(#clipPath8); fill:black; stroke:none;" xml:space="preserve">würfelt</text>
      <rect x="240" y="41" width="701" style="clip-path:url(#clipPath9); stroke:none;" height="397" />
      <rect x="240" y="41" width="700" style="clip-path:url(#clipPath9); fill:none; stroke:black;" height="396" />
      <rect x="240" y="41" width="701" style="clip-path:url(#clipPath10); stroke:none;" height="15" />
      <rect x="240" y="41" width="700" style="clip-path:url(#clipPath10); fill:none; stroke:black;" height="14" />
      <text x="329" y="13" transform="translate(245,41)" style="font-size:13; clip-path:url(#clipPath11); fill:black; stroke:none;" xml:space="preserve">Spiel</text>
      <polygon points=" 580 94 609 80 639 94 609 109 580 94" transform="translate(3,3)" style="fill:rgb(153,153,153); clip-path:url(#clipPath12); stroke:none;" />
      <polygon points=" 580 94 609 80 639 94 609 109 580 94" transform="translate(3,3)" style="fill:none; clip-path:url(#clipPath12); stroke:rgb(153,153,153);" />
      <circle transform="translate(3,3)" style="clip-path:url(#clipPath13); fill:rgb(153,153,153); stroke:none;" r="7" cx="307" cy="87" />
      <circle transform="translate(3,3)" style="clip-path:url(#clipPath13); fill:none; stroke:rgb(153,153,153);" r="7" cx="307" cy="87" />
      <polygon points=" 420 94 449 80 479 94 449 109 420 94" transform="translate(3,3)" style="fill:rgb(153,153,153); clip-path:url(#clipPath14); stroke:none;" />
      <polygon points=" 420 94 449 80 479 94 449 109 420 94" transform="translate(3,3)" style="fill:none; clip-path:url(#clipPath14); stroke:rgb(153,153,153);" />
      <polygon points=" 580 214 609 200 639 214 609 229 580 214" transform="translate(3,3)" style="fill:rgb(153,153,153); clip-path:url(#clipPath15); stroke:none;" />
      <polygon points=" 580 214 609 200 639 214 609 229 580 214" transform="translate(3,3)" style="fill:none; clip-path:url(#clipPath15); stroke:rgb(153,153,153);" />
      <rect x="365" y="300" transform="translate(3,3)" width="141" style="clip-path:url(#clipPath16); fill:rgb(153,153,153); stroke:none;" rx="4" ry="4" height="30" />
      <rect x="365" y="300" transform="translate(3,3)" width="140" style="clip-path:url(#clipPath16); fill:none; stroke:rgb(153,153,153);" rx="4" ry="4" height="29" />
      <rect x="580" y="300" transform="translate(3,3)" width="267" style="clip-path:url(#clipPath17); fill:rgb(153,153,153); stroke:none;" rx="4" ry="4" height="30" />
      <rect x="580" y="300" transform="translate(3,3)" width="266" style="clip-path:url(#clipPath17); fill:none; stroke:rgb(153,153,153);" rx="4" ry="4" height="29" />
      <polygon points=" 740 94 769 80 799 94 769 109 740 94" transform="translate(3,3)" style="fill:rgb(153,153,153); clip-path:url(#clipPath18); stroke:none;" />
      <polygon points=" 740 94 769 80 799 94 769 109 740 94" transform="translate(3,3)" style="fill:none; clip-path:url(#clipPath18); stroke:rgb(153,153,153);" />
      <circle transform="translate(3,3)" style="clip-path:url(#clipPath19); fill:rgb(153,153,153); stroke:none;" r="8.5" cx="388.5" cy="388.5" />
      <circle transform="translate(3,3)" style="clip-path:url(#clipPath19); fill:none; stroke:rgb(153,153,153);" r="8.5" cx="388.5" cy="388.5" />
      <polygon points=" 440 366 680 366 700 386 700 410 440 410 440 366" transform="translate(3,3)" style="fill:rgb(153,153,153); clip-path:url(#clipPath20); stroke:none;" />
      <path transform="translate(3,3)" style="fill:none; clip-path:url(#clipPath20); stroke:rgb(153,153,153);" d="M440 366 L680 366 L700 386 L700 410 L440 410 L440 366" />
      <path transform="translate(3,3)" style="fill:none; clip-path:url(#clipPath20); stroke:rgb(153,153,153);" d="M680 366 L700 386 L680 386 L680 366" />
      <polygon style="clip-path:url(#clipPath12); stroke:none;" points=" 580 94 609 80 639 94 609 109 580 94" />
      <polygon style="fill:none; clip-path:url(#clipPath12); stroke:black;" points=" 580 94 609 80 639 94 609 109 580 94" />
      <text x="0" y="13" transform="translate(514,66)" style="font-size:13; clip-path:url(#clipPath21); fill:black; stroke:none;" xml:space="preserve">Haben alle Spieler gewürfelt?</text>
      <circle style="clip-path:url(#clipPath13); fill:black; stroke:none;" r="7" cx="307" cy="87" />
      <circle style="clip-path:url(#clipPath13); fill:none; stroke:black;" r="7" cx="307" cy="87" />
      <polygon style="clip-path:url(#clipPath14); stroke:none;" points=" 420 94 449 80 479 94 449 109 420 94" />
      <polygon style="fill:none; clip-path:url(#clipPath14); stroke:black;" points=" 420 94 449 80 479 94 449 109 420 94" />
      <text x="3" y="13" transform="translate(445,120)" style="font-size:13; clip-path:url(#clipPath22); fill:black; stroke:none;" xml:space="preserve"> </text>
      <polygon style="clip-path:url(#clipPath15); stroke:none;" points=" 580 214 609 200 639 214 609 229 580 214" />
      <polygon style="fill:none; clip-path:url(#clipPath15); stroke:black;" points=" 580 214 609 200 639 214 609 229 580 214" />
      <text x="0" y="13" transform="translate(366,207)" style="font-size:13; clip-path:url(#clipPath23); fill:black; stroke:none;" xml:space="preserve">Größte Zahl ein Mal vorhanden?</text>
      <rect x="365" y="300" width="141" style="clip-path:url(#clipPath16); stroke:none;" rx="4" ry="4" height="30" />
      <rect x="365" y="300" width="140" style="clip-path:url(#clipPath16); fill:none; stroke:black;" rx="4" ry="4" height="29" />
      <text x="0" y="13" transform="translate(370,307)" style="font-size:13; clip-path:url(#clipPath24); fill:black; stroke:none;" xml:space="preserve">Start Spieler wählen</text>
      <rect x="580" y="300" width="267" style="clip-path:url(#clipPath17); stroke:none;" rx="4" ry="4" height="30" />
      <rect x="580" y="300" width="266" style="clip-path:url(#clipPath17); fill:none; stroke:black;" rx="4" ry="4" height="29" />
      <text x="0" y="13" transform="translate(585,307)" style="font-size:13; clip-path:url(#clipPath25); fill:black; stroke:none;" xml:space="preserve">Alle Spieler mit groesster Zahl waehlen</text>
      <polygon style="clip-path:url(#clipPath18); stroke:none;" points=" 740 94 769 80 799 94 769 109 740 94" />
      <polygon style="fill:none; clip-path:url(#clipPath18); stroke:black;" points=" 740 94 769 80 799 94 769 109 740 94" />
      <text x="3" y="13" transform="translate(765,120)" style="font-size:13; clip-path:url(#clipPath22); fill:black; stroke:none;" xml:space="preserve"> </text>
      <circle style="clip-path:url(#clipPath19); stroke:none;" r="8.5" cx="388.5" cy="388.5" />
      <circle style="clip-path:url(#clipPath19); fill:none; stroke:black;" r="8.5" cx="388.5" cy="388.5" />
      <circle style="clip-path:url(#clipPath26); fill:black; stroke:none;" r="5.5" cx="388.5" cy="388.5" />
      <polygon style="clip-path:url(#clipPath20); stroke:none;" points=" 440 366 680 366 700 386 700 410 440 410 440 366" />
      <path d="M440 366 L680 366 L700 386 L700 410 L440 410 L440 366" style="fill:none; clip-path:url(#clipPath20); stroke:black;" />
      <path d="M680 366 L700 386 L680 386 L680 366" style="fill:none; clip-path:url(#clipPath20); stroke:black;" />
      <text x="0" y="13" transform="translate(444,370)" style="font-size:13; clip-path:url(#clipPath27); fill:black; stroke:none;" xml:space="preserve">Startspieler wurde gewaehlt. Weiter</text>
      <text x="0" y="28" transform="translate(444,370)" style="font-size:13; clip-path:url(#clipPath27); fill:black; stroke:none;" xml:space="preserve">mit Use Case Spielzug.</text>
      <path d="M639 95 L741 94" style="fill:none; clip-path:url(#clipPath1); stroke:rgb(0,0,127);" />
      <polygon style="fill:rgb(0,0,127); clip-path:url(#clipPath28); stroke:none;" points=" 739 94 729 89 739 94 729 99 739 94" />
      <polygon style="fill:none; clip-path:url(#clipPath28); stroke:rgb(0,0,127);" points=" 739 94 729 89 739 94 729 99 739 94" />
      <text x="0" y="13" transform="translate(642,102)" style="font-size:13; clip-path:url(#clipPath29); fill:black; stroke:none;" xml:space="preserve">[nein]</text>
      <path d="M639 95 L741 94" style="fill:none; clip-path:url(#clipPath1); stroke:rgb(0,0,127);" />
      <polygon style="fill:rgb(0,0,127); clip-path:url(#clipPath28); stroke:none;" points=" 739 94 729 89 739 94 729 99 739 94" />
      <polygon style="fill:none; clip-path:url(#clipPath28); stroke:rgb(0,0,127);" points=" 739 94 729 89 739 94 729 99 739 94" />
      <text x="0" y="13" transform="translate(642,102)" style="font-size:13; clip-path:url(#clipPath29); fill:black; stroke:none;" xml:space="preserve">[nein]</text>
      <path d="M315 82 L436 82" style="fill:none; clip-path:url(#clipPath1); stroke:rgb(0,0,127);" />
      <polygon style="fill:rgb(0,0,127); clip-path:url(#clipPath30); stroke:none;" points=" 435 82 425 77 435 82 425 87 435 82" />
      <polygon style="fill:none; clip-path:url(#clipPath30); stroke:rgb(0,0,127);" points=" 435 82 425 77 435 82 425 87 435 82" />
      <path d="M315 82 L436 82" style="fill:none; clip-path:url(#clipPath1); stroke:rgb(0,0,127);" />
      <polygon style="fill:rgb(0,0,127); clip-path:url(#clipPath30); stroke:none;" points=" 435 82 425 77 435 82 425 87 435 82" />
      <polygon style="fill:none; clip-path:url(#clipPath30); stroke:rgb(0,0,127);" points=" 435 82 425 77 435 82 425 87 435 82" />
      <path d="M479 95 L581 94" style="fill:none; clip-path:url(#clipPath1); stroke:rgb(0,0,127);" />
      <polygon style="fill:rgb(0,0,127); clip-path:url(#clipPath31); stroke:none;" points=" 579 94 569 89 579 94 569 99 579 94" />
      <polygon style="fill:none; clip-path:url(#clipPath31); stroke:rgb(0,0,127);" points=" 579 94 569 89 579 94 569 99 579 94" />
      <path d="M479 95 L581 94" style="fill:none; clip-path:url(#clipPath1); stroke:rgb(0,0,127);" />
      <polygon style="fill:rgb(0,0,127); clip-path:url(#clipPath31); stroke:none;" points=" 579 94 569 89 579 94 569 99 579 94" />
      <polygon style="fill:none; clip-path:url(#clipPath31); stroke:rgb(0,0,127);" points=" 579 94 569 89 579 94 569 99 579 94" />
      <path d="M609 109 L610 200" style="fill:none; clip-path:url(#clipPath1); stroke:rgb(0,0,127);" />
      <polygon style="fill:rgb(0,0,127); clip-path:url(#clipPath32); stroke:none;" points=" 609 198 614 188 609 198 604 188 609 198" />
      <polygon style="fill:none; clip-path:url(#clipPath32); stroke:rgb(0,0,127);" points=" 609 198 614 188 609 198 604 188 609 198" />
      <text x="0" y="13" transform="translate(622,162)" style="font-size:13; clip-path:url(#clipPath33); fill:black; stroke:none;" xml:space="preserve">[ja]</text>
      <path d="M609 109 L610 200" style="fill:none; clip-path:url(#clipPath1); stroke:rgb(0,0,127);" />
      <polygon style="fill:rgb(0,0,127); clip-path:url(#clipPath32); stroke:none;" points=" 609 198 614 188 609 198 604 188 609 198" />
      <polygon style="fill:none; clip-path:url(#clipPath32); stroke:rgb(0,0,127);" points=" 609 198 614 188 609 198 604 188 609 198" />
      <text x="0" y="13" transform="translate(622,162)" style="font-size:13; clip-path:url(#clipPath33); fill:black; stroke:none;" xml:space="preserve">[ja]</text>
      <path d="M595 222 L461 300" style="fill:none; clip-path:url(#clipPath1); stroke:rgb(0,0,127);" />
      <polygon style="fill:rgb(0,0,127); clip-path:url(#clipPath34); stroke:none;" points=" 461 299 472 298 461 299 467 290 461 299" />
      <polygon style="fill:none; clip-path:url(#clipPath34); stroke:rgb(0,0,127);" points=" 461 299 472 298 461 299 467 290 461 299" />
      <text x="0" y="13" transform="translate(462,262)" style="font-size:13; clip-path:url(#clipPath33); fill:black; stroke:none;" xml:space="preserve">[ja]</text>
      <path d="M595 222 L461 300" style="fill:none; clip-path:url(#clipPath1); stroke:rgb(0,0,127);" />
      <polygon style="fill:rgb(0,0,127); clip-path:url(#clipPath34); stroke:none;" points=" 461 299 472 298 461 299 467 290 461 299" />
      <polygon style="fill:none; clip-path:url(#clipPath34); stroke:rgb(0,0,127);" points=" 461 299 472 298 461 299 467 290 461 299" />
      <text x="0" y="13" transform="translate(462,262)" style="font-size:13; clip-path:url(#clipPath33); fill:black; stroke:none;" xml:space="preserve">[ja]</text>
      <path d="M609 229 L610 300" style="fill:none; clip-path:url(#clipPath1); stroke:rgb(0,0,127);" />
      <polygon style="fill:rgb(0,0,127); clip-path:url(#clipPath35); stroke:none;" points=" 609 298 614 288 609 298 604 288 609 298" />
      <polygon style="fill:none; clip-path:url(#clipPath35); stroke:rgb(0,0,127);" points=" 609 298 614 288 609 298 604 288 609 298" />
      <text x="0" y="13" transform="translate(622,262)" style="font-size:13; clip-path:url(#clipPath29); fill:black; stroke:none;" xml:space="preserve">[nein]</text>
      <path d="M609 229 L610 300" style="fill:none; clip-path:url(#clipPath1); stroke:rgb(0,0,127);" />
      <polygon style="fill:rgb(0,0,127); clip-path:url(#clipPath35); stroke:none;" points=" 609 298 614 288 609 298 604 288 609 298" />
      <polygon style="fill:none; clip-path:url(#clipPath35); stroke:rgb(0,0,127);" points=" 609 298 614 288 609 298 604 288 609 298" />
      <text x="0" y="13" transform="translate(622,262)" style="font-size:13; clip-path:url(#clipPath29); fill:black; stroke:none;" xml:space="preserve">[nein]</text>
      <path d="M770 300 L769 109" style="fill:none; clip-path:url(#clipPath1); stroke:rgb(0,0,127);" />
      <polygon style="fill:rgb(0,0,127); clip-path:url(#clipPath36); stroke:none;" points=" 769 110 764 120 769 110 774 120 769 110" />
      <polygon style="fill:none; clip-path:url(#clipPath36); stroke:rgb(0,0,127);" points=" 769 110 764 120 769 110 774 120 769 110" />
      <path d="M770 300 L769 109" style="fill:none; clip-path:url(#clipPath1); stroke:rgb(0,0,127);" />
      <polygon style="fill:rgb(0,0,127); clip-path:url(#clipPath36); stroke:none;" points=" 769 110 764 120 769 110 774 120 769 110" />
      <polygon style="fill:none; clip-path:url(#clipPath36); stroke:rgb(0,0,127);" points=" 769 110 764 120 769 110 774 120 769 110" />
      <path d="M389 330 L389 380" style="fill:none; clip-path:url(#clipPath1); stroke:rgb(0,0,127);" />
      <polygon style="fill:rgb(0,0,127); clip-path:url(#clipPath37); stroke:none;" points=" 389 379 394 369 389 379 384 369 389 379" />
      <polygon style="fill:none; clip-path:url(#clipPath37); stroke:rgb(0,0,127);" points=" 389 379 394 369 389 379 384 369 389 379" />
      <path d="M389 330 L389 380" style="fill:none; clip-path:url(#clipPath1); stroke:rgb(0,0,127);" />
      <polygon style="fill:rgb(0,0,127); clip-path:url(#clipPath37); stroke:none;" points=" 389 379 394 369 389 379 384 369 389 379" />
      <polygon style="fill:none; clip-path:url(#clipPath37); stroke:rgb(0,0,127);" points=" 389 379 394 369 389 379 384 369 389 379" />
    </g>
    <g style="fill:purple; font-size:13; stroke-dasharray:15,10; stroke-linecap:butt; stroke:purple;">
      <path d="M439 388 L398 388" style="fill:none; clip-path:url(#clipPath1);" />
      <path d="M439 388 L398 388" style="fill:none; clip-path:url(#clipPath1);" />
    </g>
    <g style="fill:rgb(0,0,127); font-size:13; stroke:rgb(0,0,127);">
      <path d="M178 129 L426 98" style="fill:none; clip-path:url(#clipPath1);" />
      <polygon style="clip-path:url(#clipPath38); stroke:none;" points=" 424 98 414 94 424 98 415 104 424 98" />
      <polygon style="fill:none; clip-path:url(#clipPath38);" points=" 424 98 414 94 424 98 415 104 424 98" />
      <path d="M178 129 L426 98" style="fill:none; clip-path:url(#clipPath1);" />
      <polygon style="clip-path:url(#clipPath38); stroke:none;" points=" 424 98 414 94 424 98 415 104 424 98" />
      <polygon style="fill:none; clip-path:url(#clipPath38);" points=" 424 98 414 94 424 98 415 104 424 98" />
      <path d="M755 102 L700 135 L178 135" style="fill:none; clip-path:url(#clipPath1);" />
      <polygon style="clip-path:url(#clipPath39); stroke:none;" points=" 178 135 188 140 178 135 188 130 178 135" />
      <polygon style="fill:none; clip-path:url(#clipPath39);" points=" 178 135 188 140 178 135 188 130 178 135" />
      <path d="M755 102 L700 135 L178 135" style="fill:none; clip-path:url(#clipPath1);" />
      <polygon style="clip-path:url(#clipPath39); stroke:none;" points=" 178 135 188 140 178 135 188 130 178 135" />
      <polygon style="fill:none; clip-path:url(#clipPath39);" points=" 178 135 188 140 178 135 188 130 178 135" />
    </g>
  </g>
</svg>
